<svg width="91" height="90" viewBox="0 0 91 90" fill="none" xmlns="http://www.w3.org/2000/svg">
<circle cx="45" cy="45" r="42.5" stroke="#FFDD00" stroke-width="5"/>
<path d="M70.5 45C70.5 57.0349 67.4597 67.8115 62.6763 75.4991C57.8701 83.2233 51.5536 87.5 45 87.5C38.4464 87.5 32.1299 83.2233 27.3237 75.4991C22.5403 67.8115 19.5 57.0349 19.5 45C19.5 32.9651 22.5403 22.1885 27.3237 14.5009C32.1299 6.77666 38.4464 2.5 45 2.5C51.5536 2.5 57.8701 6.77666 62.6763 14.5009C67.4597 22.1885 70.5 32.9651 70.5 45Z" stroke="#FFDD00" stroke-width="5"/>
<path d="M45.0131 69.7473C32.9784 69.6809 22.2187 66.5813 14.5576 61.7556C6.85996 56.9069 2.61819 50.5668 2.65432 44.0134C2.69044 37.4599 7.00186 31.167 14.7525 26.4034C22.4664 21.6625 33.2596 18.6817 45.2942 18.748C57.3289 18.8144 68.0886 21.914 75.7497 26.7397C83.4474 31.5884 87.6892 37.9285 87.653 44.4819C87.6169 51.0354 83.3055 57.3283 75.5548 62.0919C67.841 66.8328 57.0478 69.8136 45.0131 69.7473Z" stroke="#FFDD00" stroke-width="5"/>
<path d="M47.5 45C47.5 57.3642 46.9426 68.5177 46.0508 76.5437C45.7329 79.4047 45.3772 81.8243 45 83.7393C44.6228 81.8243 44.2671 79.4047 43.9492 76.5437C43.0574 68.5177 42.5 57.3642 42.5 45C42.5 32.6358 43.0574 21.4823 43.9492 13.4563C44.2671 10.5953 44.6228 8.1757 45 6.26075C45.3772 8.1757 45.7329 10.5953 46.0508 13.4563C46.9426 21.4823 47.5 32.6358 47.5 45Z" stroke="#FFDD00" stroke-width="5"/>
<mask id="path-5-inside-1" fill="white">
<ellipse cx="45.0521" cy="44.459" rx="4.96194" ry="45" transform="rotate(89.3667 45.0521 44.459)"/>
</mask>
<path d="M45.0517 44.4209C32.7495 44.5569 21.6857 44.1282 13.7661 43.3434C9.77386 42.9479 6.75384 42.478 4.82007 41.9966C4.35099 41.8798 3.98585 41.7721 3.71264 41.6786C3.57782 41.6325 3.47633 41.5936 3.40385 41.5635C3.3302 41.5328 3.2997 41.5168 3.30312 41.5186C3.30436 41.5192 3.3646 41.5505 3.4626 41.6196C3.55729 41.6864 3.73147 41.8194 3.93291 42.0333C4.32808 42.453 5.03827 43.4289 5.05454 44.9011L-4.94485 45.0116C-4.92479 46.8264 -4.05347 48.139 -3.34737 48.8888C-2.66522 49.6132 -1.9027 50.0801 -1.34296 50.3738C-0.213219 50.9665 1.12773 51.3827 2.40453 51.7005C5.03785 52.356 8.61934 52.8824 12.78 53.2947C21.166 54.1257 32.6131 54.559 45.1622 54.4203L45.0517 44.4209ZM5.05454 44.9011C5.07081 46.3733 4.38236 47.3646 3.99657 47.7929C3.79991 48.0112 3.62871 48.1481 3.53552 48.2169C3.43907 48.2882 3.37954 48.3208 3.37832 48.3214C3.37493 48.3233 3.40507 48.3066 3.47802 48.2744C3.54982 48.2427 3.65043 48.2015 3.7842 48.1524C4.05527 48.0529 4.41795 47.9371 4.88433 47.81C6.80699 47.286 9.81588 46.7495 13.7984 46.2658C21.6987 45.3062 32.7503 44.633 45.0525 44.497L44.942 34.4977C32.3929 34.6364 20.9582 35.3226 12.5926 36.3387C8.44206 36.8429 4.87307 37.4484 2.25488 38.1619C0.985429 38.5079 -0.345997 38.9536 -1.46236 39.5711C-2.01548 39.8771 -2.76748 40.3607 -3.43346 41.1C-4.12281 41.8653 -4.96491 43.1969 -4.94485 45.0116L5.05454 44.9011ZM45.0525 44.497C57.3547 44.3611 68.4185 44.7898 76.3381 45.5745C80.3303 45.9701 83.3504 46.44 85.2841 46.9214C85.7532 47.0381 86.1183 47.1459 86.3915 47.2394C86.5264 47.2855 86.6279 47.3244 86.7003 47.3545C86.774 47.3851 86.8045 47.4012 86.8011 47.3994C86.7998 47.3987 86.7396 47.3674 86.6416 47.2984C86.5469 47.2316 86.3727 47.0986 86.1713 46.8846C85.7761 46.465 85.0659 45.4891 85.0497 44.0169L95.049 43.9064C95.029 42.0916 94.1577 40.779 93.4516 40.0292C92.7694 39.3047 92.0069 38.8379 91.4472 38.5442C90.3174 37.9515 88.9765 37.5353 87.6997 37.2175C85.0663 36.562 81.4849 36.0356 77.3242 35.6233C68.9382 34.7923 57.4911 34.359 44.942 34.4977L45.0525 44.497ZM85.0497 44.0169C85.0334 42.5447 85.7218 41.5533 86.1076 41.1251C86.3043 40.9067 86.4755 40.7699 86.5687 40.7011C86.6651 40.6298 86.7247 40.5972 86.7259 40.5965C86.7293 40.5947 86.6991 40.6114 86.6262 40.6436C86.5544 40.6753 86.4538 40.7165 86.32 40.7656C86.0489 40.865 85.6862 40.9809 85.2199 41.108C83.2972 41.6319 80.2883 42.1685 76.3058 42.6522C68.4055 43.6118 57.3539 44.285 45.0517 44.4209L45.1622 54.4203C57.7113 54.2816 69.146 53.5954 77.5116 52.5792C81.6621 52.0751 85.2311 51.4696 87.8493 50.7561C89.1188 50.4101 90.4502 49.9644 91.5666 49.3468C92.1197 49.0409 92.8717 48.5573 93.5377 47.8179C94.227 47.0527 95.0691 45.7211 95.049 43.9064L85.0497 44.0169Z" fill="#FFDD00" mask="url(#path-5-inside-1)"/>
</svg>
