<svg width="675" height="54" viewBox="0 0 675 54" fill="none" xmlns="http://www.w3.org/2000/svg">
<path d="M13.65 5C16.4833 5 18.8 5.56666 20.6 6.7C22.4333 7.83333 23.75 9.26666 24.55 11C25.35 12.7333 25.75 14.5667 25.75 16.5C25.75 18.4333 25.35 20.2667 24.55 22C23.75 23.7 22.45 25.1167 20.65 26.25C18.85 27.35 16.5167 27.9 13.65 27.9H5.95V40H1.75V5H13.65ZM13.1 24.15C15.5 24.15 17.5 23.5833 19.1 22.45C20.7333 21.2833 21.55 19.3 21.55 16.5C21.55 13.7333 20.7333 11.7833 19.1 10.65C17.5 9.48333 15.5 8.9 13.1 8.9H5.95V24.15H13.1ZM47.148 40.35C44.4814 40.35 42.2147 39.7167 40.348 38.45C38.5147 37.15 37.1314 35.4667 36.198 33.4C35.2647 31.3 34.798 29.05 34.798 26.65C34.798 24.25 35.2647 22.0167 36.198 19.95C37.1314 17.85 38.5147 16.1667 40.348 14.9C42.2147 13.6 44.4814 12.95 47.148 12.95C49.8147 12.95 52.0647 13.6 53.898 14.9C55.7647 16.1667 57.148 17.85 58.048 19.95C58.9814 22.05 59.448 24.2833 59.448 26.65C59.448 29.0167 58.9814 31.25 58.048 33.35C57.1147 35.45 55.7147 37.15 53.848 38.45C52.0147 39.7167 49.7814 40.35 47.148 40.35ZM47.148 36.65C48.7814 36.65 50.198 36.2 51.398 35.3C52.6314 34.4 53.5647 33.2 54.198 31.7C54.8314 30.1667 55.148 28.4667 55.148 26.6C55.148 23.7333 54.4314 21.35 52.998 19.45C51.5647 17.55 49.6147 16.6 47.148 16.6C45.4814 16.6 44.0314 17.05 42.798 17.95C41.598 18.85 40.6814 20.0667 40.048 21.6C39.4147 23.1 39.098 24.7667 39.098 26.6C39.098 29.4667 39.8147 31.8667 41.248 33.8C42.6814 35.7 44.648 36.65 47.148 36.65ZM82.0344 36.7C84.1344 36.7 85.801 36.1 87.0344 34.9C88.2677 33.7 89.0344 32.1167 89.3344 30.15H93.5344C93.1677 32.8167 92.1177 35.1167 90.3844 37.05C88.6844 38.95 86.3344 40.0333 83.3344 40.3L82.4844 42.75H83.7844C85.3844 42.75 86.5844 43.1667 87.3844 44C88.2177 44.8333 88.6344 45.8833 88.6344 47.15C88.6344 48.55 88.1344 49.7667 87.1344 50.8C86.1344 51.8333 84.6677 52.35 82.7344 52.35C81.6677 52.35 80.701 52.1833 79.8344 51.85L79.8844 49.4C80.8844 49.6333 81.851 49.75 82.7844 49.75C83.8844 49.75 84.7344 49.5 85.3344 49C85.9344 48.5333 86.2344 47.9167 86.2344 47.15C86.2344 46.3167 85.9344 45.75 85.3344 45.45C84.7344 45.15 84.1177 45 83.4844 45H79.3344V44.85L80.7344 40.3C78.2677 40.1 76.1844 39.3333 74.4844 38C72.8177 36.6667 71.5677 35 70.7344 33C69.9344 31 69.5344 28.8833 69.5344 26.65C69.5344 24.2833 69.9844 22.0667 70.8844 20C71.7844 17.9 73.1677 16.2 75.0344 14.9C76.9344 13.6 79.251 12.95 81.9844 12.95C85.3844 12.95 88.051 13.9333 89.9844 15.9C91.951 17.8667 93.1344 20.2833 93.5344 23.15H89.3344C89.0344 21.2167 88.2677 19.65 87.0344 18.45C85.801 17.2167 84.1344 16.6 82.0344 16.6C79.3677 16.6 77.3344 17.5667 75.9344 19.5C74.5677 21.4 73.8844 23.7833 73.8844 26.65C73.8844 29.5167 74.5677 31.9167 75.9344 33.85C77.3344 35.75 79.3677 36.7 82.0344 36.7ZM111.593 17.1V32.4C111.593 33.6333 111.643 34.55 111.743 35.15C111.876 35.7167 112.193 36.1667 112.693 36.5C113.226 36.8333 114.076 37 115.243 37C116.043 37 116.91 36.8833 117.843 36.65V39.75C117.61 39.85 117.093 39.95 116.293 40.05C115.526 40.15 114.726 40.2 113.893 40.2C111.96 40.2 110.51 39.9333 109.543 39.4C108.61 38.8333 107.993 38.0833 107.693 37.15C107.426 36.1833 107.293 34.9167 107.293 33.35V17.1H102.393V13.65H107.293V5H111.593V13.65H117.843V17.1H111.593ZM138.822 40.35C136.489 40.35 134.489 39.75 132.822 38.55C131.189 37.35 129.939 35.7167 129.072 33.65C128.205 31.5833 127.772 29.25 127.772 26.65C127.772 24.05 128.205 21.7167 129.072 19.65C129.972 17.55 131.255 15.9167 132.922 14.75C134.622 13.55 136.639 12.95 138.972 12.95C141.305 12.95 143.189 13.5 144.622 14.6C146.055 15.7 147.139 17.0167 147.872 18.55H148.222V13.65H152.572V40H148.222V34.6H147.872C147.072 36.1667 145.939 37.5167 144.472 38.65C143.005 39.7833 141.122 40.35 138.822 40.35ZM140.172 36.65C142.739 36.65 144.705 35.7 146.072 33.8C147.439 31.8667 148.122 29.4833 148.122 26.65C148.122 23.8167 147.439 21.45 146.072 19.55C144.705 17.6167 142.739 16.65 140.172 16.65C137.539 16.65 135.539 17.6 134.172 19.5C132.839 21.4 132.172 23.7667 132.172 26.6C132.172 29.4667 132.839 31.8667 134.172 33.8C135.539 35.7 137.539 36.65 140.172 36.65ZM165.178 13.65H169.478V18.4H169.878C170.544 16.8667 171.628 15.5833 173.128 14.55C174.628 13.4833 176.461 12.95 178.628 12.95C180.861 12.95 182.728 13.4833 184.228 14.55C185.728 15.5833 186.828 16.9667 187.528 18.7C188.261 20.4 188.628 22.25 188.628 24.25V40H184.328V24.8C184.328 22.2 183.644 20.2167 182.278 18.85C180.944 17.4833 179.194 16.8 177.028 16.8C174.728 16.8 172.894 17.55 171.528 19.05C170.161 20.5167 169.478 22.4333 169.478 24.8V40H165.178V13.65ZM210.299 43.65C209.765 44.9167 209.249 45.95 208.749 46.75C208.282 47.5833 207.499 48.3667 206.399 49.1C205.299 49.8333 203.865 50.2 202.099 50.2C201.165 50.2 200.165 50.0667 199.099 49.8V46.6C199.899 46.7333 200.599 46.8 201.199 46.8C202.299 46.8 203.182 46.5833 203.849 46.15C204.515 45.75 205.032 45.2167 205.399 44.55C205.799 43.8833 206.265 42.9167 206.799 41.65L207.999 38.7L198.249 13.65H202.749L210.099 33.95H210.399L218.099 13.65H222.599L210.299 43.65ZM232.404 13.65H236.704V18.4H237.104C237.771 16.8667 238.854 15.5833 240.354 14.55C241.854 13.4833 243.688 12.95 245.854 12.95C248.088 12.95 249.954 13.4833 251.454 14.55C252.954 15.5833 254.054 16.9667 254.754 18.7C255.488 20.4 255.854 22.25 255.854 24.25V40H251.554V24.8C251.554 22.2 250.871 20.2167 249.504 18.85C248.171 17.4833 246.421 16.8 244.254 16.8C241.954 16.8 240.121 17.55 238.754 19.05C237.388 20.5167 236.704 22.4333 236.704 24.8V40H232.404V13.65ZM239.804 3.05L243.804 7.5H244.004L248.104 3.05H252.404L245.804 10.35H242.104L235.504 3.05H239.804ZM284.343 13.65H288.643V17.85H288.943C289.376 16.6833 290.143 15.7 291.243 14.9C292.376 14.0667 293.793 13.65 295.493 13.65C296.026 13.65 296.443 13.6833 296.743 13.75C297.076 13.7833 297.443 13.8667 297.843 14L297.693 18.2C297.16 18.0333 296.693 17.9167 296.293 17.85C295.926 17.7833 295.443 17.75 294.843 17.75C290.71 17.75 288.643 20.2 288.643 25.1V40H284.343V13.65ZM317.928 40.35C315.228 40.35 312.945 39.7 311.078 38.4C309.245 37.1 307.878 35.4 306.978 33.3C306.078 31.2 305.628 28.9833 305.628 26.65C305.628 24.2833 306.078 22.0667 306.978 20C307.878 17.9 309.261 16.2 311.128 14.9C312.995 13.6 315.278 12.95 317.978 12.95C321.511 12.95 324.328 14.1333 326.428 16.5C328.561 18.8667 329.628 22.2667 329.628 26.7V27.9H309.928V28.25C309.928 29.7167 310.261 31.1 310.928 32.4C311.595 33.7 312.528 34.75 313.728 35.55C314.928 36.35 316.311 36.75 317.878 36.75C319.578 36.75 321.045 36.3167 322.278 35.45C323.511 34.5833 324.428 33.4167 325.028 31.95H329.278C328.578 34.35 327.261 36.35 325.328 37.95C323.428 39.55 320.961 40.35 317.928 40.35ZM325.378 24.85C325.245 21.85 324.511 19.6833 323.178 18.35C321.845 17.0167 320.095 16.35 317.928 16.35C315.561 16.35 313.678 17.1333 312.278 18.7C310.878 20.2667 310.128 22.3167 310.028 24.85H325.378ZM352.779 50.55C351.779 50.55 350.962 50.4833 350.329 50.35C349.729 50.2167 349.112 50.0333 348.479 49.8V46.2C348.912 46.3333 349.495 46.45 350.229 46.55C350.962 46.6833 351.679 46.75 352.379 46.75C354.979 46.75 356.929 46.0167 358.229 44.55C359.562 43.0833 360.229 41.1333 360.229 38.7V33.95H359.829C359.129 35.5167 357.995 36.85 356.429 37.95C354.895 39.0167 353.029 39.55 350.829 39.55C348.629 39.55 346.695 38.9833 345.029 37.85C343.362 36.7167 342.062 35.15 341.129 33.15C340.229 31.1167 339.779 28.8 339.779 26.2C339.779 23.6 340.229 21.3 341.129 19.3C342.062 17.2667 343.362 15.6833 345.029 14.55C346.695 13.4167 348.629 12.85 350.829 12.85C353.129 12.85 355.045 13.45 356.579 14.65C358.145 15.8167 359.245 17.1833 359.879 18.75H360.229V13.7H364.579V38.7C364.579 40.5667 364.195 42.4 363.429 44.2C362.695 46 361.445 47.5 359.679 48.7C357.912 49.9333 355.612 50.55 352.779 50.55ZM352.229 35.85C353.929 35.85 355.379 35.4 356.579 34.5C357.779 33.5667 358.662 32.3667 359.229 30.9C359.829 29.4 360.129 27.8 360.129 26.1C360.129 24.4333 359.829 22.8833 359.229 21.45C358.662 20.0167 357.779 18.85 356.579 17.95C355.412 17.05 353.962 16.6 352.229 16.6C349.662 16.6 347.695 17.5333 346.329 19.4C344.995 21.2333 344.329 23.4667 344.329 26.1C344.329 27.8333 344.612 29.45 345.179 30.95C345.779 32.4167 346.662 33.6 347.829 34.5C349.029 35.4 350.495 35.85 352.229 35.85ZM377.432 13.65H381.732V40H377.432V13.65ZM379.532 8.75C378.732 8.75 378.065 8.48333 377.532 7.95C376.999 7.38333 376.732 6.71666 376.732 5.95C376.732 5.18333 376.999 4.53333 377.532 4C378.065 3.43333 378.732 3.15 379.532 3.15C380.332 3.15 380.999 3.43333 381.532 4C382.099 4.53333 382.382 5.18333 382.382 5.95C382.382 6.71666 382.099 7.38333 381.532 7.95C380.999 8.48333 380.332 8.75 379.532 8.75ZM403.582 40.35C401.449 40.35 399.599 39.9333 398.032 39.1C396.465 38.2333 395.265 37.1333 394.432 35.8C393.632 34.4667 393.232 33.0667 393.232 31.6V31.35H397.532V31.55C397.532 32.3833 397.765 33.2167 398.232 34.05C398.699 34.85 399.399 35.5167 400.332 36.05C401.265 36.55 402.399 36.8 403.732 36.8C405.332 36.8 406.649 36.4167 407.682 35.65C408.749 34.85 409.282 33.7667 409.282 32.4C409.282 31.2667 408.865 30.3667 408.032 29.7C407.232 29.0333 406.215 28.6 404.982 28.4L401.532 27.9C399.365 27.5667 397.549 26.8333 396.082 25.7C394.615 24.5333 393.882 22.85 393.882 20.65C393.882 18.2167 394.749 16.3333 396.482 15C398.249 13.6333 400.499 12.95 403.232 12.95C405.265 12.95 406.999 13.3333 408.432 14.1C409.899 14.8333 411.015 15.8167 411.782 17.05C412.549 18.25 412.932 19.5667 412.932 21V21.2H408.632V21.1C408.632 20.4333 408.449 19.7333 408.082 19C407.749 18.2667 407.165 17.6333 406.332 17.1C405.499 16.5667 404.432 16.3 403.132 16.3C401.532 16.3 400.249 16.7 399.282 17.5C398.315 18.2667 397.832 19.2833 397.832 20.55C397.832 21.5833 398.215 22.4333 398.982 23.1C399.749 23.7667 400.715 24.2 401.882 24.4L405.632 25C407.832 25.3667 409.682 26.1333 411.182 27.3C412.682 28.4333 413.432 30.1167 413.432 32.35C413.432 33.95 412.999 35.35 412.132 36.55C411.299 37.75 410.132 38.6833 408.632 39.35C407.132 40.0167 405.449 40.35 403.582 40.35ZM431.437 17.1V32.4C431.437 33.6333 431.487 34.55 431.587 35.15C431.72 35.7167 432.037 36.1667 432.537 36.5C433.07 36.8333 433.92 37 435.087 37C435.887 37 436.753 36.8833 437.687 36.65V39.75C437.453 39.85 436.937 39.95 436.137 40.05C435.37 40.15 434.57 40.2 433.737 40.2C431.803 40.2 430.353 39.9333 429.387 39.4C428.453 38.8333 427.837 38.0833 427.537 37.15C427.27 36.1833 427.137 34.9167 427.137 33.35V17.1H422.237V13.65H427.137V5H431.437V13.65H437.687V17.1H431.437ZM448.816 13.65H453.116V17.85H453.416C453.849 16.6833 454.616 15.7 455.716 14.9C456.849 14.0667 458.266 13.65 459.966 13.65C460.499 13.65 460.916 13.6833 461.216 13.75C461.549 13.7833 461.916 13.8667 462.316 14L462.166 18.2C461.632 18.0333 461.166 17.9167 460.766 17.85C460.399 17.7833 459.916 17.75 459.316 17.75C455.182 17.75 453.116 20.2 453.116 25.1V40H448.816V13.65ZM480.951 40.35C478.617 40.35 476.617 39.75 474.951 38.55C473.317 37.35 472.067 35.7167 471.201 33.65C470.334 31.5833 469.901 29.25 469.901 26.65C469.901 24.05 470.334 21.7167 471.201 19.65C472.101 17.55 473.384 15.9167 475.051 14.75C476.751 13.55 478.767 12.95 481.101 12.95C483.434 12.95 485.317 13.5 486.751 14.6C488.184 15.7 489.267 17.0167 490.001 18.55H490.351V13.65H494.701V40H490.351V34.6H490.001C489.201 36.1667 488.067 37.5167 486.601 38.65C485.134 39.7833 483.251 40.35 480.951 40.35ZM482.301 36.65C484.867 36.65 486.834 35.7 488.201 33.8C489.567 31.8667 490.251 29.4833 490.251 26.65C490.251 23.8167 489.567 21.45 488.201 19.55C486.834 17.6167 484.867 16.65 482.301 16.65C479.667 16.65 477.667 17.6 476.301 19.5C474.967 21.4 474.301 23.7667 474.301 26.6C474.301 29.4667 474.967 31.8667 476.301 33.8C477.667 35.7 479.667 36.65 482.301 36.65ZM516.307 40.35C514.173 40.35 512.323 39.9333 510.757 39.1C509.19 38.2333 507.99 37.1333 507.157 35.8C506.357 34.4667 505.957 33.0667 505.957 31.6V31.35H510.257V31.55C510.257 32.3833 510.49 33.2167 510.957 34.05C511.423 34.85 512.123 35.5167 513.057 36.05C513.99 36.55 515.123 36.8 516.457 36.8C518.057 36.8 519.373 36.4167 520.407 35.65C521.473 34.85 522.007 33.7667 522.007 32.4C522.007 31.2667 521.59 30.3667 520.757 29.7C519.957 29.0333 518.94 28.6 517.707 28.4L514.257 27.9C512.09 27.5667 510.273 26.8333 508.807 25.7C507.34 24.5333 506.607 22.85 506.607 20.65C506.607 18.2167 507.473 16.3333 509.207 15C510.973 13.6333 513.223 12.95 515.957 12.95C517.99 12.95 519.723 13.3333 521.157 14.1C522.623 14.8333 523.74 15.8167 524.507 17.05C525.273 18.25 525.657 19.5667 525.657 21V21.2H521.357V21.1C521.357 20.4333 521.173 19.7333 520.807 19C520.473 18.2667 519.89 17.6333 519.057 17.1C518.223 16.5667 517.157 16.3 515.857 16.3C514.257 16.3 512.973 16.7 512.007 17.5C511.04 18.2667 510.557 19.2833 510.557 20.55C510.557 21.5833 510.94 22.4333 511.707 23.1C512.473 23.7667 513.44 24.2 514.607 24.4L518.357 25C520.557 25.3667 522.407 26.1333 523.907 27.3C525.407 28.4333 526.157 30.1167 526.157 32.35C526.157 33.95 525.723 35.35 524.857 36.55C524.023 37.75 522.857 38.6833 521.357 39.35C519.857 40.0167 518.173 40.35 516.307 40.35ZM537.461 13.65H541.761V40H537.461V13.65ZM539.561 8.75C538.761 8.75 538.095 8.48333 537.561 7.95C537.028 7.38333 536.761 6.71666 536.761 5.95C536.761 5.18333 537.028 4.53333 537.561 4C538.095 3.43333 538.761 3.15 539.561 3.15C540.361 3.15 541.028 3.43333 541.561 4C542.128 4.53333 542.411 5.18333 542.411 5.95C542.411 6.71666 542.128 7.38333 541.561 7.95C541.028 8.48333 540.361 8.75 539.561 8.75ZM564.361 43.65C563.828 44.9167 563.311 45.95 562.811 46.75C562.345 47.5833 561.561 48.3667 560.461 49.1C559.361 49.8333 557.928 50.2 556.161 50.2C555.228 50.2 554.228 50.0667 553.161 49.8V46.6C553.961 46.7333 554.661 46.8 555.261 46.8C556.361 46.8 557.245 46.5833 557.911 46.15C558.578 45.75 559.095 45.2167 559.461 44.55C559.861 43.8833 560.328 42.9167 560.861 41.65L562.061 38.7L552.311 13.65H556.811L564.161 33.95H564.461L572.161 13.65H576.661L564.361 43.65ZM562.711 10.1L567.611 1.15H572.211L566.161 10.1H562.711ZM595.287 40.35C592.953 40.35 590.953 39.75 589.287 38.55C587.653 37.35 586.403 35.7167 585.537 33.65C584.67 31.5833 584.237 29.25 584.237 26.65C584.237 24.05 584.67 21.7167 585.537 19.65C586.437 17.55 587.72 15.9167 589.387 14.75C591.087 13.55 593.103 12.95 595.437 12.95C597.77 12.95 599.653 13.5 601.087 14.6C602.52 15.7 603.603 17.0167 604.337 18.55H604.687V13.65H609.037V40H604.687V34.6H604.337C603.537 36.1667 602.403 37.5167 600.937 38.65C599.47 39.7833 597.587 40.35 595.287 40.35ZM596.637 36.65C599.203 36.65 601.17 35.7 602.537 33.8C603.903 31.8667 604.587 29.4833 604.587 26.65C604.587 23.8167 603.903 21.45 602.537 19.55C601.17 17.6167 599.203 16.65 596.637 16.65C594.003 16.65 592.003 17.6 590.637 19.5C589.303 21.4 588.637 23.7667 588.637 26.6C588.637 29.4667 589.303 31.8667 590.637 33.8C592.003 35.7 594.003 36.65 596.637 36.65ZM630.643 40.35C628.509 40.35 626.659 39.9333 625.093 39.1C623.526 38.2333 622.326 37.1333 621.493 35.8C620.693 34.4667 620.293 33.0667 620.293 31.6V31.35H624.593V31.55C624.593 32.3833 624.826 33.2167 625.293 34.05C625.759 34.85 626.459 35.5167 627.393 36.05C628.326 36.55 629.459 36.8 630.793 36.8C632.393 36.8 633.709 36.4167 634.743 35.65C635.809 34.85 636.343 33.7667 636.343 32.4C636.343 31.2667 635.926 30.3667 635.093 29.7C634.293 29.0333 633.276 28.6 632.043 28.4L628.593 27.9C626.426 27.5667 624.609 26.8333 623.143 25.7C621.676 24.5333 620.943 22.85 620.943 20.65C620.943 18.2167 621.809 16.3333 623.543 15C625.309 13.6333 627.559 12.95 630.293 12.95C632.326 12.95 634.059 13.3333 635.493 14.1C636.959 14.8333 638.076 15.8167 638.843 17.05C639.609 18.25 639.993 19.5667 639.993 21V21.2H635.693V21.1C635.693 20.4333 635.509 19.7333 635.143 19C634.809 18.2667 634.226 17.6333 633.393 17.1C632.559 16.5667 631.493 16.3 630.193 16.3C628.593 16.3 627.309 16.7 626.343 17.5C625.376 18.2667 624.893 19.2833 624.893 20.55C624.893 21.5833 625.276 22.4333 626.043 23.1C626.809 23.7667 627.776 24.2 628.943 24.4L632.693 25C634.893 25.3667 636.743 26.1333 638.243 27.3C639.743 28.4333 640.493 30.1167 640.493 32.35C640.493 33.95 640.059 35.35 639.193 36.55C638.359 37.75 637.193 38.6833 635.693 39.35C634.193 40.0167 632.509 40.35 630.643 40.35ZM660.221 43.65C659.687 44.9167 659.171 45.95 658.671 46.75C658.204 47.5833 657.421 48.3667 656.321 49.1C655.221 49.8333 653.787 50.2 652.021 50.2C651.087 50.2 650.087 50.0667 649.021 49.8V46.6C649.821 46.7333 650.521 46.8 651.121 46.8C652.221 46.8 653.104 46.5833 653.771 46.15C654.437 45.75 654.954 45.2167 655.321 44.55C655.721 43.8833 656.187 42.9167 656.721 41.65L657.921 38.7L648.171 13.65H652.671L660.021 33.95H660.321L668.021 13.65H672.521L660.221 43.65Z" fill="#2C3E50"/>
<path d="M20.6 6.7L20.0672 7.54626L20.0742 7.55059L20.6 6.7ZM24.55 11L25.458 10.5809L25.458 10.5809L24.55 11ZM24.55 22L25.4548 22.4258L25.458 22.4191L24.55 22ZM20.65 26.25L21.1715 27.1034L21.1828 27.0962L20.65 26.25ZM5.95 27.9V26.9H4.95V27.9H5.95ZM5.95 40V41H6.95V40H5.95ZM1.75 40H0.75V41H1.75V40ZM1.75 5V4H0.75V5H1.75ZM19.1 22.45L19.678 23.266L19.6812 23.2637L19.1 22.45ZM19.1 10.65L18.5108 11.458L18.5203 11.4649L18.5299 11.4716L19.1 10.65ZM5.95 8.9V7.9H4.95V8.9H5.95ZM5.95 24.15H4.95V25.15H5.95V24.15ZM13.65 6C16.3558 6 18.4715 6.54156 20.0672 7.54623L21.1328 5.85377C19.1285 4.59177 16.6109 4 13.65 4V6ZM20.0742 7.55059C21.7628 8.59446 22.9346 9.88632 23.642 11.4191L25.458 10.5809C24.5654 8.64701 23.1039 7.0722 21.1258 5.8494L20.0742 7.55059ZM23.642 11.4191C24.3806 13.0193 24.75 14.7095 24.75 16.5H26.75C26.75 14.4239 26.3194 12.4474 25.458 10.5809L23.642 11.4191ZM24.75 16.5C24.75 18.2905 24.3806 19.9807 23.642 21.5809L25.458 22.4191C26.3194 20.5526 26.75 18.5761 26.75 16.5H24.75ZM23.6452 21.5742C22.9369 23.0793 21.7775 24.3584 20.1172 25.4038L21.1828 27.0962C23.1225 25.875 24.5631 24.3207 25.4548 22.4258L23.6452 21.5742ZM20.1286 25.3967C18.5323 26.3722 16.3964 26.9 13.65 26.9V28.9C16.6369 28.9 19.1677 28.3278 21.1715 27.1033L20.1286 25.3967ZM13.65 26.9H5.95V28.9H13.65V26.9ZM4.95 27.9V40H6.95V27.9H4.95ZM5.95 39H1.75V41H5.95V39ZM2.75 40V5H0.75V40H2.75ZM1.75 6H13.65V4H1.75V6ZM13.1 25.15C15.66 25.15 17.8743 24.5437 19.678 23.266L18.522 21.634C17.1257 22.623 15.34 23.15 13.1 23.15V25.15ZM19.6812 23.2637C21.6721 21.8417 22.55 19.4857 22.55 16.5H20.55C20.55 19.1143 19.7946 20.7249 18.5188 21.6363L19.6812 23.2637ZM22.55 16.5C22.55 13.5445 21.6696 11.2159 19.6701 9.82841L18.5299 11.4716C19.797 12.3508 20.55 13.9221 20.55 16.5H22.55ZM19.6892 9.84199C17.8844 8.526 15.6659 7.9 13.1 7.9V9.9C15.3341 9.9 17.1156 10.4407 18.5108 11.458L19.6892 9.84199ZM13.1 7.9H5.95V9.9H13.1V7.9ZM4.95 8.9V24.15H6.95V8.9H4.95ZM5.95 25.15H13.1V23.15H5.95V25.15ZM40.348 38.45L39.7696 39.2657L39.778 39.2717L39.7865 39.2775L40.348 38.45ZM36.198 33.4L35.2842 33.8061L35.2867 33.8116L36.198 33.4ZM36.198 19.95L37.1094 20.3616L37.1119 20.3561L36.198 19.95ZM40.348 14.9L40.9165 15.7227L40.9195 15.7206L40.348 14.9ZM53.898 14.9L53.3196 15.7157L53.328 15.7217L53.3365 15.7275L53.898 14.9ZM58.048 19.95L57.1288 20.344L57.1342 20.3561L58.048 19.95ZM58.048 33.35L58.9619 33.7561L58.9619 33.7561L58.048 33.35ZM53.848 38.45L54.4165 39.2727L54.4195 39.2706L53.848 38.45ZM51.398 35.3L50.8085 34.4921L50.798 34.5L51.398 35.3ZM54.198 31.7L55.1193 32.089L55.1223 32.0818L54.198 31.7ZM42.798 17.95L42.2085 17.1421L42.198 17.15L42.798 17.95ZM40.048 21.6L40.9693 21.989L40.9723 21.9818L40.048 21.6ZM41.248 33.8L40.4447 34.3956L40.4497 34.4022L41.248 33.8ZM47.148 39.35C44.6444 39.35 42.5822 38.7575 40.9095 37.6225L39.7865 39.2775C41.8472 40.6758 44.3184 41.35 47.148 41.35V39.35ZM40.9265 37.6343C39.2394 36.438 37.9703 34.8947 37.1094 32.9884L35.2867 33.8116C36.2924 36.0386 37.79 37.862 39.7696 39.2657L40.9265 37.6343ZM37.1119 32.9939C36.2379 31.0274 35.798 28.9164 35.798 26.65H33.798C33.798 29.1836 34.2916 31.5726 35.2842 33.8061L37.1119 32.9939ZM35.798 26.65C35.798 24.3835 36.2379 22.2914 37.1094 20.3616L35.2867 19.5384C34.2915 21.7419 33.798 24.1165 33.798 26.65H35.798ZM37.1119 20.3561C37.973 18.4186 39.2393 16.8815 40.9165 15.7227L39.7796 14.0773C37.7902 15.4518 36.2898 17.2814 35.2842 19.5439L37.1119 20.3561ZM40.9195 15.7206C42.5911 14.5565 44.6496 13.95 47.148 13.95V11.95C44.3132 11.95 41.8383 12.6435 39.7766 14.0794L40.9195 15.7206ZM47.148 13.95C49.6471 13.95 51.685 14.5567 53.3196 15.7157L54.4765 14.0843C52.4444 12.6433 49.9823 11.95 47.148 11.95V13.95ZM53.3365 15.7275C55.0429 16.8853 56.3032 18.4173 57.1289 20.3439L58.9672 19.5561C57.9929 17.2827 56.4866 15.448 54.4595 14.0725L53.3365 15.7275ZM57.1342 20.3561C58.009 22.3244 58.448 24.419 58.448 26.65H60.448C60.448 24.1477 59.9537 21.7756 58.9619 19.5439L57.1342 20.3561ZM58.448 26.65C58.448 28.881 58.009 30.9756 57.1342 32.9439L58.9619 33.7561C59.9537 31.5244 60.448 29.1523 60.448 26.65H58.448ZM57.1342 32.9439C56.2742 34.8789 54.9918 36.4348 53.2766 37.6294L54.4195 39.2706C56.4376 37.8652 57.9552 36.0211 58.9619 33.7561L57.1342 32.9439ZM53.2796 37.6273C51.642 38.7587 49.6161 39.35 47.148 39.35V41.35C49.9467 41.35 52.3875 40.6746 54.4165 39.2727L53.2796 37.6273ZM47.148 37.65C48.9774 37.65 50.6093 37.1415 51.998 36.1L50.798 34.5C49.7868 35.2585 48.5854 35.65 47.148 35.65V37.65ZM51.9875 36.1078C53.3772 35.0937 54.4203 33.7445 55.1193 32.089L53.2768 31.311C52.7092 32.6555 51.8856 33.7063 50.8086 34.4922L51.9875 36.1078ZM55.1223 32.0818C55.8115 30.4131 56.148 28.5813 56.148 26.6H54.148C54.148 28.352 53.8512 29.9202 53.2738 31.3182L55.1223 32.0818ZM56.148 26.6C56.148 23.5617 55.3857 20.9545 53.7964 18.8478L52.1997 20.0522C53.4771 21.7455 54.148 23.905 54.148 26.6H56.148ZM53.7964 18.8478C52.1661 16.6868 49.9151 15.6 47.148 15.6V17.6C49.3143 17.6 50.9633 18.4132 52.1997 20.0522L53.7964 18.8478ZM47.148 15.6C45.29 15.6 43.6289 16.1058 42.2086 17.1422L43.3875 18.7578C44.4339 17.9942 45.6728 17.6 47.148 17.6V15.6ZM42.198 17.15C40.8395 18.1689 39.8182 19.537 39.1238 21.2182L40.9723 21.9818C41.5445 20.5963 42.3566 19.5311 43.398 18.75L42.198 17.15ZM39.1268 21.211C38.4353 22.8487 38.098 24.6499 38.098 26.6H40.098C40.098 24.8835 40.3941 23.3513 40.9693 21.989L39.1268 21.211ZM38.098 26.6C38.098 29.6389 38.8606 32.2589 40.4447 34.3956L42.0514 33.2044C40.7688 31.4745 40.098 29.2944 40.098 26.6H38.098ZM40.4497 34.4022C42.0829 36.5671 44.3527 37.65 47.148 37.65V35.65C44.9433 35.65 43.2799 34.8329 42.0464 33.1978L40.4497 34.4022ZM89.3344 30.15V29.15H88.4754L88.3458 29.9992L89.3344 30.15ZM93.5344 30.15L94.5251 30.2862L94.6813 29.15H93.5344V30.15ZM90.3844 37.05L89.6398 36.3825L89.6391 36.3832L90.3844 37.05ZM83.3344 40.3L83.2458 39.3039L82.6016 39.3612L82.3896 39.9722L83.3344 40.3ZM82.4844 42.75L81.5396 42.4222L81.079 43.75H82.4844V42.75ZM87.3844 44L86.663 44.6925L86.6701 44.6999L86.6773 44.7071L87.3844 44ZM79.8344 51.85L78.8346 51.8296L78.8203 52.5314L79.4754 52.7833L79.8344 51.85ZM79.8844 49.4L80.1116 48.4262L78.9098 48.1457L78.8846 49.3796L79.8844 49.4ZM85.3344 49L84.7204 48.2106L84.7071 48.221L84.6942 48.2318L85.3344 49ZM79.3344 45H78.3344V46H79.3344V45ZM79.3344 44.85L78.3786 44.5559L78.3344 44.6996V44.85H79.3344ZM80.7344 40.3L81.6902 40.5941L82.0564 39.4039L80.8152 39.3033L80.7344 40.3ZM74.4844 38L73.8597 38.7809L73.8672 38.7869L74.4844 38ZM70.7344 33L69.8059 33.3714L69.8086 33.378L69.8113 33.3846L70.7344 33ZM70.8844 20L71.8012 20.3993L71.8035 20.3939L70.8844 20ZM75.0344 14.9L74.4697 14.0747L74.4629 14.0794L75.0344 14.9ZM89.9844 15.9L89.2712 16.6011L89.2773 16.6071L89.9844 15.9ZM93.5344 23.15V24.15H94.6836L94.5248 23.0118L93.5344 23.15ZM89.3344 23.15L88.3462 23.3033L88.4776 24.15H89.3344V23.15ZM87.0344 18.45L86.3272 19.1572L86.337 19.1667L87.0344 18.45ZM75.9344 19.5L75.1244 18.9135L75.1226 18.9161L75.9344 19.5ZM75.9344 33.85L75.1178 34.4272L75.1235 34.4353L75.1293 34.4432L75.9344 33.85ZM82.0344 37.7C84.334 37.7 86.2722 37.0368 87.7317 35.6167L86.337 34.1833C85.3299 35.1632 83.9348 35.7 82.0344 35.7V37.7ZM87.7317 35.6167C89.1448 34.2419 89.9954 32.4478 90.3229 30.3008L88.3458 29.9992C88.0733 31.7855 87.3906 33.1581 86.337 34.1833L87.7317 35.6167ZM89.3344 31.15H93.5344V29.15H89.3344V31.15ZM92.5437 30.0138C92.2032 32.4904 91.2348 34.6034 89.6398 36.3825L91.1289 37.7175C93.0006 35.63 94.1323 33.1429 94.5251 30.2862L92.5437 30.0138ZM89.6391 36.3832C88.1384 38.0605 86.0419 39.0554 83.2458 39.3039L83.4229 41.2961C86.6269 41.0113 89.2304 39.8395 91.1296 37.7168L89.6391 36.3832ZM82.3896 39.9722L81.5396 42.4222L83.4291 43.0778L84.2791 40.6278L82.3896 39.9722ZM82.4844 43.75H83.7844V41.75H82.4844V43.75ZM83.7844 43.75C85.2196 43.75 86.1149 44.1216 86.663 44.6925L88.1058 43.3075C87.0538 42.2117 85.5491 41.75 83.7844 41.75V43.75ZM86.6773 44.7071C87.3081 45.3379 87.6344 46.1266 87.6344 47.15H89.6344C89.6344 45.6401 89.1273 44.3287 88.0915 43.2929L86.6773 44.7071ZM87.6344 47.15C87.6344 48.2827 87.2407 49.2521 86.4158 50.1046L87.853 51.4954C89.028 50.2812 89.6344 48.8173 89.6344 47.15H87.6344ZM86.4158 50.1046C85.6622 50.8833 84.4934 51.35 82.7344 51.35V53.35C84.842 53.35 86.6066 52.7834 87.853 51.4954L86.4158 50.1046ZM82.7344 51.35C81.7724 51.35 80.9298 51.1999 80.1934 50.9167L79.4754 52.7833C80.4723 53.1668 81.563 53.35 82.7344 53.35V51.35ZM80.8342 51.8704L80.8842 49.4204L78.8846 49.3796L78.8346 51.8296L80.8342 51.8704ZM79.6571 50.3738C80.7243 50.6228 81.7674 50.75 82.7844 50.75V48.75C81.9347 48.75 81.0445 48.6438 80.1116 48.4262L79.6571 50.3738ZM82.7844 50.75C84.0241 50.75 85.1337 50.4689 85.9746 49.7682L84.6942 48.2318C84.335 48.5311 83.7447 48.75 82.7844 48.75V50.75ZM85.9483 49.7894C86.7944 49.1313 87.2344 48.2221 87.2344 47.15H85.2344C85.2344 47.6112 85.0744 47.9353 84.7204 48.2106L85.9483 49.7894ZM87.2344 47.15C87.2344 46.048 86.8087 45.0691 85.7816 44.5556L84.8872 46.3444C85.06 46.4309 85.2344 46.5854 85.2344 47.15H87.2344ZM85.7816 44.5556C85.0512 44.1904 84.2821 44 83.4844 44V46C83.9533 46 84.4176 46.1096 84.8872 46.3444L85.7816 44.5556ZM83.4844 44H79.3344V46H83.4844V44ZM80.3344 45V44.85H78.3344V45H80.3344ZM80.2902 45.1441L81.6902 40.5941L79.7786 40.0059L78.3786 44.5559L80.2902 45.1441ZM80.8152 39.3033C78.5148 39.1168 76.6256 38.4085 75.1015 37.2131L73.8672 38.7869C75.7431 40.2581 78.0206 41.0832 80.6536 41.2967L80.8152 39.3033ZM75.1091 37.2191C73.5756 35.9924 72.4272 34.4628 71.6575 32.6154L69.8113 33.3846C70.7082 35.5372 72.0598 37.341 73.8597 38.7809L75.1091 37.2191ZM71.6629 32.6286C70.9118 30.7511 70.5344 28.7609 70.5344 26.65H68.5344C68.5344 29.0058 68.9569 31.2489 69.8059 33.3714L71.6629 32.6286ZM70.5344 26.65C70.5344 24.4137 70.9588 22.3337 71.8012 20.3993L69.9675 19.6007C69.01 21.7996 68.5344 24.1529 68.5344 26.65H70.5344ZM71.8035 20.3939C72.6302 18.4651 73.8934 16.9132 75.6059 15.7206L74.4629 14.0794C72.442 15.4868 70.9386 17.3349 69.9652 19.6061L71.8035 20.3939ZM75.5991 15.7253C77.3035 14.5591 79.414 13.95 81.9844 13.95V11.95C79.0881 11.95 76.5652 12.6409 74.4697 14.0747L75.5991 15.7253ZM81.9844 13.95C85.1826 13.95 87.5679 14.8683 89.2713 16.601L90.6975 15.199C88.5342 12.9984 85.5861 11.95 81.9844 11.95V13.95ZM89.2773 16.6071C91.0836 18.4134 92.1727 20.6275 92.544 23.2882L94.5248 23.0118C94.096 19.9391 92.8185 17.3199 90.6915 15.1929L89.2773 16.6071ZM93.5344 22.15H89.3344V24.15H93.5344V22.15ZM90.3226 22.9967C89.9941 20.8797 89.1414 19.1049 87.7317 17.7333L86.337 19.1667C87.394 20.1951 88.0747 21.5537 88.3462 23.3033L90.3226 22.9967ZM87.7415 17.7429C86.2833 16.2847 84.3417 15.6 82.0344 15.6V17.6C83.927 17.6 85.3188 18.1486 86.3273 19.1571L87.7415 17.7429ZM82.0344 15.6C79.0905 15.6 76.7366 16.6871 75.1244 18.9135L76.7443 20.0865C77.9321 18.4462 79.6449 17.6 82.0344 17.6V15.6ZM75.1226 18.9161C73.6083 21.0213 72.8844 23.6217 72.8844 26.65H74.8844C74.8844 23.945 75.5272 21.7787 76.7462 20.0839L75.1226 18.9161ZM72.8844 26.65C72.8844 29.679 73.6085 32.2921 75.1178 34.4272L76.751 33.2728C75.5269 31.5412 74.8844 29.3543 74.8844 26.65H72.8844ZM75.1293 34.4432C76.7443 36.6349 79.0974 37.7 82.0344 37.7V35.7C79.638 35.7 77.9245 34.8651 76.7394 33.2568L75.1293 34.4432ZM111.593 17.1V16.1H110.593V17.1H111.593ZM111.743 35.15L110.757 35.3144L110.762 35.3469L110.77 35.379L111.743 35.15ZM112.693 36.5L112.138 37.3321L112.151 37.3402L112.163 37.348L112.693 36.5ZM117.843 36.65H118.843V35.3692L117.6 35.6799L117.843 36.65ZM117.843 39.75L118.237 40.6691L118.843 40.4094V39.75H117.843ZM116.293 40.05L116.169 39.0577L116.164 39.0584L116.293 40.05ZM109.543 39.4L109.024 40.2548L109.042 40.2656L109.06 40.2756L109.543 39.4ZM107.693 37.15L106.729 37.4159L106.735 37.4361L106.741 37.456L107.693 37.15ZM107.293 17.1H108.293V16.1H107.293V17.1ZM102.393 17.1H101.393V18.1H102.393V17.1ZM102.393 13.65V12.65H101.393V13.65H102.393ZM107.293 13.65V14.65H108.293V13.65H107.293ZM107.293 5V4H106.293V5H107.293ZM111.593 5H112.593V4H111.593V5ZM111.593 13.65H110.593V14.65H111.593V13.65ZM117.843 13.65H118.843V12.65H117.843V13.65ZM117.843 17.1V18.1H118.843V17.1H117.843ZM110.593 17.1V32.4H112.593V17.1H110.593ZM110.593 32.4C110.593 33.6445 110.642 34.6293 110.757 35.3144L112.729 34.9856C112.644 34.4707 112.593 33.6222 112.593 32.4H110.593ZM110.77 35.379C110.963 36.2012 111.435 36.8631 112.138 37.3321L113.248 35.6679C112.951 35.4702 112.79 35.2321 112.716 34.921L110.77 35.379ZM112.163 37.348C112.941 37.8342 114.025 38 115.243 38V36C114.127 36 113.512 35.8325 113.223 35.652L112.163 37.348ZM115.243 38C116.139 38 117.088 37.8694 118.086 37.6201L117.6 35.6799C116.731 35.8972 115.947 36 115.243 36V38ZM116.843 36.65V39.75H118.843V36.65H116.843ZM117.449 38.8309C117.452 38.8298 117.426 38.8404 117.357 38.8588C117.292 38.8761 117.204 38.8962 117.09 38.9182C116.862 38.9624 116.557 39.0092 116.169 39.0577L116.417 41.0423C116.829 40.9908 117.182 40.9376 117.47 40.8818C117.741 40.8294 118.017 40.7636 118.237 40.6691L117.449 38.8309ZM116.164 39.0584C115.443 39.1524 114.686 39.2 113.893 39.2V41.2C114.766 41.2 115.61 41.1476 116.422 41.0416L116.164 39.0584ZM113.893 39.2C112.019 39.2 110.772 38.9358 110.026 38.5244L109.06 40.2756C110.248 40.9308 111.9 41.2 113.893 41.2V39.2ZM110.062 38.5452C109.309 38.0882 108.863 37.5218 108.645 36.844L106.741 37.456C107.123 38.6449 107.91 39.5785 109.024 40.2548L110.062 38.5452ZM108.657 36.8841C108.424 36.0383 108.293 34.8712 108.293 33.35H106.293C106.293 34.9622 106.429 36.3283 106.729 37.4159L108.657 36.8841ZM108.293 33.35V17.1H106.293V33.35H108.293ZM107.293 16.1H102.393V18.1H107.293V16.1ZM103.393 17.1V13.65H101.393V17.1H103.393ZM102.393 14.65H107.293V12.65H102.393V14.65ZM108.293 13.65V5H106.293V13.65H108.293ZM107.293 6H111.593V4H107.293V6ZM110.593 5V13.65H112.593V5H110.593ZM111.593 14.65H117.843V12.65H111.593V14.65ZM116.843 13.65V17.1H118.843V13.65H116.843ZM117.843 16.1H111.593V18.1H117.843V16.1ZM132.822 38.55L132.23 39.3559L132.238 39.3615L132.822 38.55ZM129.072 33.65L129.994 33.2633L129.072 33.65ZM129.072 19.65L128.153 19.2561L128.15 19.2633L129.072 19.65ZM132.922 14.75L133.495 15.5692L133.499 15.567L132.922 14.75ZM144.622 14.6L144.013 15.3933L144.013 15.3933L144.622 14.6ZM147.872 18.55L146.97 18.9815L147.242 19.55H147.872V18.55ZM148.222 18.55V19.55H149.222V18.55H148.222ZM148.222 13.65V12.65H147.222V13.65H148.222ZM152.572 13.65H153.572V12.65H152.572V13.65ZM152.572 40V41H153.572V40H152.572ZM148.222 40H147.222V41H148.222V40ZM148.222 34.6H149.222V33.6H148.222V34.6ZM147.872 34.6V33.6H147.26L146.981 34.1452L147.872 34.6ZM144.472 38.65L145.083 39.4413L145.083 39.4413L144.472 38.65ZM146.072 33.8L146.884 34.3839L146.888 34.3772L146.072 33.8ZM146.072 19.55L145.255 20.1273L145.26 20.1339L146.072 19.55ZM134.172 19.5L133.36 18.916L133.353 18.9256L134.172 19.5ZM134.172 33.8L133.349 34.3677L133.354 34.3759L133.36 34.3839L134.172 33.8ZM138.822 39.35C136.669 39.35 134.88 38.7996 133.406 37.7385L132.238 39.3615C134.097 40.7004 136.309 41.35 138.822 41.35V39.35ZM133.414 37.7441C131.942 36.6625 130.798 35.1811 129.994 33.2633L128.15 34.0367C129.079 36.2523 130.435 38.0375 132.23 39.3559L133.414 37.7441ZM129.994 33.2633C129.186 31.3371 128.772 29.1382 128.772 26.65H126.772C126.772 29.3618 127.224 31.8296 128.15 34.0367L129.994 33.2633ZM128.772 26.65C128.772 24.1618 129.186 21.9629 129.994 20.0367L128.15 19.2633C127.224 21.4704 126.772 23.9382 126.772 26.65H128.772ZM129.991 20.0439C130.827 18.0935 131.999 16.6163 133.495 15.5692L132.348 13.9308C130.511 15.217 129.117 17.0065 128.153 19.2561L129.991 20.0439ZM133.499 15.567C135.01 14.5003 136.819 13.95 138.972 13.95V11.95C136.458 11.95 134.234 12.5997 132.345 13.933L133.499 15.567ZM138.972 13.95C141.15 13.95 142.8 14.462 144.013 15.3933L145.231 13.8067C143.578 12.538 141.461 11.95 138.972 11.95V13.95ZM144.013 15.3933C145.33 16.4037 146.309 17.5991 146.97 18.9815L148.774 18.1185C147.968 16.4343 146.781 14.9963 145.231 13.8067L144.013 15.3933ZM147.872 19.55H148.222V17.55H147.872V19.55ZM149.222 18.55V13.65H147.222V18.55H149.222ZM148.222 14.65H152.572V12.65H148.222V14.65ZM151.572 13.65V40H153.572V13.65H151.572ZM152.572 39H148.222V41H152.572V39ZM149.222 40V34.6H147.222V40H149.222ZM148.222 33.6H147.872V35.6H148.222V33.6ZM146.981 34.1452C146.252 35.5735 145.217 36.8106 143.86 37.8587L145.083 39.4413C146.66 38.2227 147.892 36.7599 148.762 35.0548L146.981 34.1452ZM143.86 37.8587C142.608 38.8268 140.955 39.35 138.822 39.35V41.35C141.289 41.35 143.403 40.7398 145.083 39.4413L143.86 37.8587ZM140.172 37.65C143.024 37.65 145.309 36.5732 146.884 34.3839L145.26 33.2161C144.101 34.8268 142.453 35.65 140.172 35.65V37.65ZM146.888 34.3772C148.396 32.244 149.122 29.6485 149.122 26.65H147.122C147.122 29.3182 146.481 31.4893 145.255 33.2228L146.888 34.3772ZM149.122 26.65C149.122 23.6521 148.397 21.0694 146.884 18.9661L145.26 20.1339C146.48 21.8306 147.122 23.9812 147.122 26.65H149.122ZM146.888 18.9728C145.317 16.7492 143.031 15.65 140.172 15.65V17.65C142.446 17.65 144.094 18.4841 145.255 20.1272L146.888 18.9728ZM140.172 15.65C137.263 15.65 134.94 16.7192 133.36 18.9161L134.984 20.0839C136.137 18.4808 137.814 17.65 140.172 17.65V15.65ZM133.353 18.9256C131.878 21.028 131.172 23.6071 131.172 26.6H133.172C133.172 23.9262 133.799 21.772 134.99 20.0744L133.353 18.9256ZM131.172 26.6C131.172 29.6241 131.877 32.2337 133.349 34.3677L134.995 33.2323C133.8 31.4997 133.172 29.3092 133.172 26.6H131.172ZM133.36 34.3839C134.94 36.5808 137.263 37.65 140.172 37.65V35.65C137.814 35.65 136.137 34.8192 134.984 33.2161L133.36 34.3839ZM165.178 13.65V12.65H164.178V13.65H165.178ZM169.478 13.65H170.478V12.65H169.478V13.65ZM169.478 18.4H168.478V19.4H169.478V18.4ZM169.878 18.4V19.4H170.533L170.795 18.7987L169.878 18.4ZM173.128 14.55L173.695 15.3735L173.701 15.3693L173.707 15.365L173.128 14.55ZM184.228 14.55L183.648 15.365L183.654 15.3693L183.66 15.3735L184.228 14.55ZM187.528 18.7L186.6 19.0745L186.605 19.0853L186.61 19.0961L187.528 18.7ZM188.628 40V41H189.628V40H188.628ZM184.328 40H183.328V41H184.328V40ZM182.278 18.85L181.562 19.5484L181.571 19.5571L182.278 18.85ZM171.528 19.05L172.259 19.7318L172.267 19.7235L171.528 19.05ZM169.478 40V41H170.478V40H169.478ZM165.178 40H164.178V41H165.178V40ZM165.178 14.65H169.478V12.65H165.178V14.65ZM168.478 13.65V18.4H170.478V13.65H168.478ZM169.478 19.4H169.878V17.4H169.478V19.4ZM170.795 18.7987C171.38 17.4521 172.335 16.3106 173.695 15.3735L172.56 13.7265C170.921 14.8561 169.709 16.2812 168.961 18.0013L170.795 18.7987ZM173.707 15.365C175.01 14.4389 176.631 13.95 178.628 13.95V11.95C176.291 11.95 174.246 12.5278 172.548 13.735L173.707 15.365ZM178.628 13.95C180.699 13.95 182.351 14.4424 183.648 15.365L184.807 13.735C183.105 12.5243 181.024 11.95 178.628 11.95V13.95ZM183.66 15.3735C184.995 16.2926 185.972 17.5178 186.6 19.0745L188.455 18.3255C187.684 16.4155 186.461 14.8741 184.795 13.7265L183.66 15.3735ZM186.61 19.0961C187.285 20.6612 187.628 22.3752 187.628 24.25H189.628C189.628 22.1248 189.237 20.1388 188.446 18.3039L186.61 19.0961ZM187.628 24.25V40H189.628V24.25H187.628ZM188.628 39H184.328V41H188.628V39ZM185.328 40V24.8H183.328V40H185.328ZM185.328 24.8C185.328 22.0291 184.597 19.7546 182.985 18.1429L181.571 19.5571C182.692 20.6787 183.328 22.3709 183.328 24.8H185.328ZM182.994 18.1517C181.446 16.5654 179.424 15.8 177.028 15.8V17.8C178.965 17.8 180.443 18.4012 181.562 19.5483L182.994 18.1517ZM177.028 15.8C174.488 15.8 172.371 16.6397 170.789 18.3765L172.267 19.7235C173.418 18.4603 174.968 17.8 177.028 17.8V15.8ZM170.796 18.3683C169.226 20.0528 168.478 22.2289 168.478 24.8H170.478C170.478 22.6377 171.096 20.9805 172.259 19.7317L170.796 18.3683ZM168.478 24.8V40H170.478V24.8H168.478ZM169.478 39H165.178V41H169.478V39ZM166.178 40V13.65H164.178V40H166.178ZM210.299 43.65L211.221 44.0381L211.224 44.0294L210.299 43.65ZM208.749 46.75L207.901 46.22L207.888 46.2404L207.876 46.2614L208.749 46.75ZM206.399 49.1L205.844 48.268L205.844 48.268L206.399 49.1ZM199.099 49.8H198.099V50.5808L198.856 50.7701L199.099 49.8ZM199.099 46.6L199.263 45.6136L198.099 45.4195V46.6H199.099ZM203.849 46.15L203.334 45.2925L203.319 45.3018L203.304 45.3116L203.849 46.15ZM205.399 44.55L204.541 44.0355L204.532 44.0516L204.523 44.0681L205.399 44.55ZM206.799 41.65L207.721 42.0381L207.725 42.0268L206.799 41.65ZM207.999 38.7L208.925 39.0768L209.075 38.7082L208.931 38.3373L207.999 38.7ZM198.249 13.65V12.65H196.787L197.317 14.0127L198.249 13.65ZM202.749 13.65L203.689 13.3096L203.45 12.65H202.749V13.65ZM210.099 33.95L209.159 34.2904L209.397 34.95H210.099V33.95ZM210.399 33.95V34.95H211.089L211.334 34.3047L210.399 33.95ZM218.099 13.65V12.65H217.409L217.164 13.2953L218.099 13.65ZM222.599 13.65L223.524 14.0294L224.09 12.65H222.599V13.65ZM209.377 43.2619C208.856 44.4995 208.363 45.4806 207.901 46.22L209.597 47.28C210.135 46.4194 210.675 45.3338 211.22 44.0381L209.377 43.2619ZM207.876 46.2614C207.511 46.9141 206.86 47.5905 205.844 48.268L206.954 49.9321C208.137 49.1428 209.054 48.2526 209.621 47.2386L207.876 46.2614ZM205.844 48.268C204.955 48.8605 203.733 49.2 202.099 49.2V51.2C203.998 51.2 205.642 50.8061 206.954 49.9321L205.844 48.268ZM202.099 49.2C201.26 49.2 200.342 49.0801 199.341 48.8299L198.856 50.7701C199.989 51.0532 201.071 51.2 202.099 51.2V49.2ZM200.099 49.8V46.6H198.099V49.8H200.099ZM198.934 47.5864C199.771 47.7259 200.528 47.8 201.199 47.8V45.8C200.669 45.8 200.026 45.7408 199.263 45.6136L198.934 47.5864ZM201.199 47.8C202.421 47.8 203.514 47.5604 204.394 46.9884L203.304 45.3116C202.85 45.6063 202.177 45.8 201.199 45.8V47.8ZM204.363 47.0075C205.178 46.5186 205.821 45.8571 206.275 45.0319L204.523 44.0681C204.243 44.5763 203.853 44.9814 203.334 45.2925L204.363 47.0075ZM206.256 45.0645C206.692 44.3378 207.18 43.3207 207.72 42.0381L205.877 41.2619C205.351 42.5126 204.905 43.4289 204.541 44.0355L206.256 45.0645ZM207.725 42.0268L208.925 39.0768L207.073 38.3232L205.873 41.2732L207.725 42.0268ZM208.931 38.3373L199.181 13.2873L197.317 14.0127L207.067 39.0627L208.931 38.3373ZM198.249 14.65H202.749V12.65H198.249V14.65ZM201.809 13.9904L209.159 34.2904L211.039 33.6096L203.689 13.3096L201.809 13.9904ZM210.099 34.95H210.399V32.95H210.099V34.95ZM211.334 34.3047L219.034 14.0047L217.164 13.2953L209.464 33.5953L211.334 34.3047ZM218.099 14.65H222.599V12.65H218.099V14.65ZM221.674 13.2706L209.374 43.2706L211.224 44.0294L223.524 14.0294L221.674 13.2706ZM232.404 13.65V12.65H231.404V13.65H232.404ZM236.704 13.65H237.704V12.65H236.704V13.65ZM236.704 18.4H235.704V19.4H236.704V18.4ZM237.104 18.4V19.4H237.76L238.021 18.7987L237.104 18.4ZM240.354 14.55L240.922 15.3735L240.928 15.3693L240.934 15.365L240.354 14.55ZM251.454 14.55L250.875 15.365L250.881 15.3693L250.887 15.3735L251.454 14.55ZM254.754 18.7L253.827 19.0745L253.831 19.0853L253.836 19.0961L254.754 18.7ZM255.854 40V41H256.854V40H255.854ZM251.554 40H250.554V41H251.554V40ZM249.504 18.85L248.788 19.5484L248.797 19.5571L249.504 18.85ZM238.754 19.05L239.486 19.7318L239.493 19.7235L238.754 19.05ZM236.704 40V41H237.704V40H236.704ZM232.404 40H231.404V41H232.404V40ZM239.804 3.05L240.548 2.3815L240.25 2.05H239.804V3.05ZM243.804 7.5L243.061 8.1685L243.359 8.5H243.804V7.5ZM244.004 7.5V8.5H244.443L244.74 8.17759L244.004 7.5ZM248.104 3.05V2.05H247.666L247.369 2.37241L248.104 3.05ZM252.404 3.05L253.146 3.72065L254.657 2.05H252.404V3.05ZM245.804 10.35V11.35H246.248L246.546 11.0206L245.804 10.35ZM242.104 10.35L241.363 11.0206L241.66 11.35H242.104V10.35ZM235.504 3.05V2.05H233.252L234.763 3.72065L235.504 3.05ZM232.404 14.65H236.704V12.65H232.404V14.65ZM235.704 13.65V18.4H237.704V13.65H235.704ZM236.704 19.4H237.104V17.4H236.704V19.4ZM238.021 18.7987C238.607 17.4521 239.561 16.3106 240.922 15.3735L239.787 13.7265C238.147 14.8561 236.935 16.2812 236.187 18.0013L238.021 18.7987ZM240.934 15.365C242.236 14.4389 243.858 13.95 245.854 13.95V11.95C243.518 11.95 241.472 12.5278 239.775 13.735L240.934 15.365ZM245.854 13.95C247.925 13.95 249.577 14.4424 250.875 15.365L252.034 13.735C250.331 12.5243 248.25 11.95 245.854 11.95V13.95ZM250.887 15.3735C252.221 16.2926 253.198 17.5178 253.827 19.0745L255.682 18.3255C254.91 16.4155 253.687 14.8741 252.022 13.7265L250.887 15.3735ZM253.836 19.0961C254.511 20.6612 254.854 22.3752 254.854 24.25H256.854C256.854 22.1248 256.464 20.1388 255.673 18.3039L253.836 19.0961ZM254.854 24.25V40H256.854V24.25H254.854ZM255.854 39H251.554V41H255.854V39ZM252.554 40V24.8H250.554V40H252.554ZM252.554 24.8C252.554 22.0291 251.823 19.7546 250.211 18.1429L248.797 19.5571C249.919 20.6787 250.554 22.3709 250.554 24.8H252.554ZM250.22 18.1517C248.673 16.5654 246.651 15.8 244.254 15.8V17.8C246.191 17.8 247.669 18.4012 248.789 19.5483L250.22 18.1517ZM244.254 15.8C241.714 15.8 239.598 16.6397 238.015 18.3765L239.493 19.7235C240.644 18.4603 242.194 17.8 244.254 17.8V15.8ZM238.023 18.3683C236.453 20.0528 235.704 22.2289 235.704 24.8H237.704C237.704 22.6377 238.322 20.9805 239.486 19.7317L238.023 18.3683ZM235.704 24.8V40H237.704V24.8H235.704ZM236.704 39H232.404V41H236.704V39ZM233.404 40V13.65H231.404V40H233.404ZM239.061 3.7185L243.061 8.1685L244.548 6.8315L240.548 2.3815L239.061 3.7185ZM243.804 8.5H244.004V6.5H243.804V8.5ZM244.74 8.17759L248.84 3.72759L247.369 2.37241L243.269 6.8224L244.74 8.17759ZM248.104 4.05H252.404V2.05H248.104V4.05ZM251.663 2.37935L245.063 9.67935L246.546 11.0206L253.146 3.72065L251.663 2.37935ZM245.804 9.35H242.104V11.35H245.804V9.35ZM242.846 9.67935L236.246 2.37935L234.763 3.72065L241.363 11.0206L242.846 9.67935ZM235.504 4.05H239.804V2.05H235.504V4.05ZM284.343 13.65V12.65H283.343V13.65H284.343ZM288.643 13.65H289.643V12.65H288.643V13.65ZM288.643 17.85H287.643V18.85H288.643V17.85ZM288.943 17.85V18.85H289.638L289.88 18.1982L288.943 17.85ZM291.243 14.9L291.831 15.7087L291.835 15.7056L291.243 14.9ZM296.743 13.75L296.526 14.7262L296.584 14.7391L296.643 14.745L296.743 13.75ZM297.843 14L298.842 14.0357L298.869 13.2879L298.159 13.0513L297.843 14ZM297.693 18.2L297.395 19.1545L298.646 19.5454L298.692 18.2357L297.693 18.2ZM296.293 17.85L296.114 18.8339L296.121 18.8352L296.129 18.8364L296.293 17.85ZM288.643 40V41H289.643V40H288.643ZM284.343 40H283.343V41H284.343V40ZM284.343 14.65H288.643V12.65H284.343V14.65ZM287.643 13.65V17.85H289.643V13.65H287.643ZM288.643 18.85H288.943V16.85H288.643V18.85ZM289.88 18.1982C290.239 17.2332 290.875 16.4042 291.831 15.7087L290.655 14.0913C289.411 14.9958 288.514 16.1335 288.006 17.5018L289.88 18.1982ZM291.835 15.7056C292.764 15.0231 293.961 14.65 295.493 14.65V12.65C293.625 12.65 291.989 13.1102 290.651 14.0943L291.835 15.7056ZM295.493 14.65C295.998 14.65 296.331 14.6828 296.526 14.7262L296.96 12.7738C296.555 12.6839 296.054 12.65 295.493 12.65V14.65ZM296.643 14.745C296.887 14.7694 297.18 14.8331 297.527 14.9487L298.159 13.0513C297.706 12.9003 297.266 12.7973 296.842 12.755L296.643 14.745ZM296.844 13.9643L296.694 18.1643L298.692 18.2357L298.842 14.0357L296.844 13.9643ZM297.991 17.2455C297.429 17.0699 296.916 16.94 296.457 16.8636L296.129 18.8364C296.47 18.8933 296.89 18.9968 297.395 19.1545L297.991 17.2455ZM296.472 16.8661C296.022 16.7843 295.471 16.75 294.843 16.75V18.75C295.414 18.75 295.831 18.7824 296.114 18.8339L296.472 16.8661ZM294.843 16.75C292.573 16.75 290.704 17.4307 289.429 18.9427C288.181 20.4222 287.643 22.5335 287.643 25.1H289.643C289.643 22.7665 290.139 21.2028 290.957 20.2323C291.749 19.2943 292.979 18.75 294.843 18.75V16.75ZM287.643 25.1V40H289.643V25.1H287.643ZM288.643 39H284.343V41H288.643V39ZM285.343 40V13.65H283.343V40H285.343ZM311.078 38.4L310.5 39.2158L310.507 39.2206L311.078 38.4ZM306.978 33.3L306.059 33.6939L306.059 33.6939L306.978 33.3ZM306.978 20L307.895 20.3993L307.897 20.3939L306.978 20ZM311.128 14.9L310.557 14.0794L310.557 14.0794L311.128 14.9ZM326.428 16.5L325.68 17.1637L325.685 17.1695L326.428 16.5ZM329.628 27.9V28.9H330.628V27.9H329.628ZM309.928 27.9V26.9H308.928V27.9H309.928ZM310.928 32.4L311.818 31.9437L310.928 32.4ZM313.728 35.55L314.283 34.7179L314.283 34.7179L313.728 35.55ZM322.278 35.45L321.703 34.6318L321.703 34.6318L322.278 35.45ZM325.028 31.95V30.95H324.357L324.103 31.5714L325.028 31.95ZM329.278 31.95L330.238 32.23L330.611 30.95H329.278V31.95ZM325.328 37.95L324.691 37.1796L324.684 37.1851L325.328 37.95ZM325.378 24.85V25.85H326.424L326.377 24.8056L325.378 24.85ZM312.278 18.7L311.532 18.0337L311.532 18.0337L312.278 18.7ZM310.028 24.85L309.029 24.8106L308.988 25.85H310.028V24.85ZM317.928 39.35C315.393 39.35 313.319 38.7421 311.65 37.5794L310.507 39.2206C312.57 40.6579 315.063 41.35 317.928 41.35V39.35ZM311.657 37.5843C309.976 36.3927 308.726 34.8397 307.897 32.9061L306.059 33.6939C307.03 35.9603 308.514 37.8073 310.5 39.2157L311.657 37.5843ZM307.897 32.9061C307.052 30.9332 306.628 28.8509 306.628 26.65H304.628C304.628 29.1158 305.104 31.4668 306.059 33.6939L307.897 32.9061ZM306.628 26.65C306.628 24.4137 307.053 22.3337 307.895 20.3993L306.061 19.6007C305.104 21.7996 304.628 24.1529 304.628 26.65H306.628ZM307.897 20.3939C308.724 18.4651 309.987 16.9132 311.7 15.7206L310.557 14.0794C308.536 15.4868 307.032 17.3349 306.059 19.6061L307.897 20.3939ZM311.7 15.7206C313.369 14.5579 315.443 13.95 317.978 13.95V11.95C315.113 11.95 312.62 12.6421 310.557 14.0794L311.7 15.7206ZM317.978 13.95C321.263 13.95 323.793 15.0373 325.68 17.1637L327.176 15.8363C324.863 13.2294 321.76 11.95 317.978 11.95V13.95ZM325.685 17.1695C327.598 19.2914 328.628 22.417 328.628 26.7H330.628C330.628 22.1163 329.525 18.442 327.171 15.8305L325.685 17.1695ZM328.628 26.7V27.9H330.628V26.7H328.628ZM329.628 26.9H309.928V28.9H329.628V26.9ZM308.928 27.9V28.25H310.928V27.9H308.928ZM308.928 28.25C308.928 29.8747 309.299 31.4145 310.038 32.8563L311.818 31.9437C311.224 30.7855 310.928 29.5586 310.928 28.25H308.928ZM310.038 32.8563C310.782 34.306 311.83 35.4862 313.173 36.3821L314.283 34.7179C313.227 34.0138 312.408 33.094 311.818 31.9437L310.038 32.8563ZM313.173 36.3821C314.552 37.301 316.132 37.75 317.878 37.75V35.75C316.491 35.75 315.304 35.399 314.283 34.7179L313.173 36.3821ZM317.878 37.75C319.757 37.75 321.43 37.268 322.853 36.2682L321.703 34.6318C320.659 35.3653 319.4 35.75 317.878 35.75V37.75ZM322.853 36.2682C324.251 35.2858 325.285 33.9628 325.954 32.3286L324.103 31.5714C323.571 32.8705 322.772 33.8809 321.703 34.6318L322.853 36.2682ZM325.028 32.95H329.278V30.95H325.028V32.95ZM328.318 31.67C327.674 33.8772 326.47 35.7066 324.691 37.1796L325.966 38.7204C328.053 36.9934 329.482 34.8228 330.238 32.23L328.318 31.67ZM324.684 37.1851C323.002 38.6017 320.78 39.35 317.928 39.35V41.35C321.143 41.35 323.854 40.4983 325.972 38.7149L324.684 37.1851ZM326.377 24.8056C326.239 21.6968 325.474 19.2321 323.885 17.6429L322.471 19.0571C323.548 20.1345 324.251 22.0032 324.379 24.8944L326.377 24.8056ZM323.885 17.6429C322.336 16.0937 320.317 15.35 317.928 15.35V17.35C319.872 17.35 321.354 17.9396 322.471 19.0571L323.885 17.6429ZM317.928 15.35C315.317 15.35 313.147 16.2266 311.532 18.0337L313.024 19.3663C314.209 18.0401 315.806 17.35 317.928 17.35V15.35ZM311.532 18.0337C309.947 19.8074 309.136 22.095 309.029 24.8106L311.027 24.8894C311.12 22.5383 311.809 20.726 313.024 19.3663L311.532 18.0337ZM310.028 25.85H325.378V23.85H310.028V25.85ZM350.329 50.35L350.112 51.3262L350.123 51.3286L350.329 50.35ZM348.479 49.8H347.479V50.4973L348.133 50.7383L348.479 49.8ZM348.479 46.2L348.773 45.2442L347.479 44.846V46.2H348.479ZM350.229 46.55L350.407 45.5661L350.386 45.5622L350.364 45.5592L350.229 46.55ZM358.229 44.55L357.489 43.8773L357.48 43.8867L358.229 44.55ZM360.229 33.95H361.229V32.95H360.229V33.95ZM359.829 33.95V32.95H359.18L358.916 33.5421L359.829 33.95ZM356.429 37.95L357 38.7709L357.003 38.7684L356.429 37.95ZM345.029 37.85L344.466 38.6769L344.466 38.6769L345.029 37.85ZM341.129 33.15L340.214 33.5547L340.218 33.5639L340.222 33.5729L341.129 33.15ZM341.129 19.3L340.22 18.8828L340.217 18.8896L341.129 19.3ZM345.029 14.55L345.591 15.3769L345.591 15.3769L345.029 14.55ZM356.579 14.65L355.962 15.4375L355.972 15.4449L355.981 15.452L356.579 14.65ZM359.879 18.75L358.951 19.1248L359.204 19.75H359.879V18.75ZM360.229 18.75V19.75H361.229V18.75H360.229ZM360.229 13.7V12.7H359.229V13.7H360.229ZM364.579 13.7H365.579V12.7H364.579V13.7ZM363.429 44.2L362.508 43.8081L362.505 43.8154L362.502 43.8227L363.429 44.2ZM359.679 48.7L359.117 47.8727L359.106 47.88L359.679 48.7ZM356.579 34.5L357.179 35.3L357.186 35.2947L357.192 35.2894L356.579 34.5ZM359.229 30.9L358.3 30.5286L358.296 30.5396L359.229 30.9ZM359.229 21.45L358.299 21.8177L358.302 21.8269L358.306 21.8361L359.229 21.45ZM356.579 17.95L355.968 18.7419L355.979 18.75L356.579 17.95ZM346.329 19.4L345.522 18.8093L345.52 18.8118L346.329 19.4ZM345.179 30.95L344.243 31.3034L344.248 31.3161L344.253 31.3286L345.179 30.95ZM347.829 34.5L347.218 35.2919L347.229 35.3L347.829 34.5ZM352.779 49.55C351.815 49.55 351.074 49.485 350.535 49.3715L350.123 51.3286C350.85 51.4816 351.742 51.55 352.779 51.55V49.55ZM350.545 49.3738C349.993 49.2511 349.42 49.081 348.824 48.8617L348.133 50.7383C348.804 50.9857 349.464 51.1822 350.112 51.3262L350.545 49.3738ZM349.479 49.8V46.2H347.479V49.8H349.479ZM348.184 47.1558C348.692 47.3119 349.335 47.4375 350.093 47.5408L350.364 45.5592C349.655 45.4625 349.132 45.3548 348.773 45.2442L348.184 47.1558ZM350.05 47.5339C350.838 47.6772 351.615 47.75 352.379 47.75V45.75C351.742 45.75 351.085 45.6894 350.407 45.5661L350.05 47.5339ZM352.379 47.75C355.166 47.75 357.43 46.9582 358.977 45.2133L357.48 43.8867C356.427 45.0751 354.791 45.75 352.379 45.75V47.75ZM358.968 45.2227C360.505 43.5323 361.229 41.3228 361.229 38.7H359.229C359.229 40.9439 358.619 42.6344 357.489 43.8773L358.968 45.2227ZM361.229 38.7V33.95H359.229V38.7H361.229ZM360.229 32.95H359.829V34.95H360.229V32.95ZM358.916 33.5421C358.297 34.9253 357.29 36.123 355.854 37.1316L357.003 38.7684C358.7 37.577 359.96 36.108 360.742 34.3579L358.916 33.5421ZM355.857 37.1291C354.52 38.0596 352.862 38.55 350.829 38.55V40.55C353.195 40.55 355.27 39.9738 357 38.7709L355.857 37.1291ZM350.829 38.55C348.81 38.55 347.076 38.0333 345.591 37.0231L344.466 38.6769C346.314 39.9334 348.447 40.55 350.829 40.55V38.55ZM345.591 37.0231C344.087 36.0005 342.899 34.5799 342.035 32.7271L340.222 33.5729C341.224 35.7201 342.637 37.4328 344.466 38.6769L345.591 37.0231ZM342.043 32.7453C341.208 30.8591 340.779 28.684 340.779 26.2H338.779C338.779 28.916 339.249 31.3742 340.214 33.5547L342.043 32.7453ZM340.779 26.2C340.779 23.7156 341.208 21.5597 342.04 19.7104L340.217 18.8896C339.249 21.0403 338.779 23.4844 338.779 26.2H340.779ZM342.037 19.7172C342.903 17.8307 344.091 16.3968 345.591 15.3769L344.466 13.7231C342.633 14.9699 341.22 16.7026 340.22 18.8828L342.037 19.7172ZM345.591 15.3769C347.076 14.3667 348.81 13.85 350.829 13.85V11.85C348.447 11.85 346.314 12.4666 344.466 13.7231L345.591 15.3769ZM350.829 13.85C352.947 13.85 354.635 14.399 355.962 15.4375L357.195 13.8625C355.455 12.5009 353.31 11.85 350.829 11.85V13.85ZM355.981 15.452C357.424 16.5266 358.397 17.7532 358.951 19.1248L360.806 18.3752C360.093 16.6135 358.866 15.1067 357.176 13.848L355.981 15.452ZM359.879 19.75H360.229V17.75H359.879V19.75ZM361.229 18.75V13.7H359.229V18.75H361.229ZM360.229 14.7H364.579V12.7H360.229V14.7ZM363.579 13.7V38.7H365.579V13.7H363.579ZM363.579 38.7C363.579 40.4255 363.225 42.126 362.508 43.8081L364.349 44.5919C365.165 42.674 365.579 40.7078 365.579 38.7H363.579ZM362.502 43.8227C361.851 45.4222 360.737 46.7722 359.117 47.8728L360.24 49.5272C362.153 48.2278 363.54 46.5778 364.355 44.5773L362.502 43.8227ZM359.106 47.88C357.553 48.9643 355.471 49.55 352.779 49.55V51.55C355.753 51.55 358.271 50.9024 360.251 49.52L359.106 47.88ZM352.229 36.85C354.115 36.85 355.783 36.3468 357.179 35.3L355.979 33.7C354.974 34.4532 353.742 34.85 352.229 34.85V36.85ZM357.192 35.2894C358.541 34.2407 359.532 32.8903 360.161 31.2604L358.296 30.5396C357.792 31.8431 357.016 32.8927 355.965 33.7106L357.192 35.2894ZM360.157 31.2714C360.807 29.6472 361.129 27.9205 361.129 26.1H359.129C359.129 27.6795 358.85 29.1528 358.3 30.5286L360.157 31.2714ZM361.129 26.1C361.129 24.3105 360.806 22.6282 360.151 21.0639L358.306 21.8361C358.851 23.1385 359.129 24.5562 359.129 26.1H361.129ZM360.158 21.0823C359.526 19.4822 358.531 18.164 357.179 17.15L355.979 18.75C357.026 19.536 357.798 20.5512 358.299 21.8177L360.158 21.0823ZM357.189 17.1582C355.818 16.1004 354.142 15.6 352.229 15.6V17.6C353.781 17.6 355.006 17.9996 355.968 18.7418L357.189 17.1582ZM352.229 15.6C349.383 15.6 347.099 16.6544 345.522 18.8093L347.135 19.9907C348.291 18.4122 349.94 17.6 352.229 17.6V15.6ZM345.52 18.8118C344.043 20.8426 343.329 23.2907 343.329 26.1H345.329C345.329 23.6427 345.948 21.6241 347.137 19.9882L345.52 18.8118ZM343.329 26.1C343.329 27.9442 343.63 29.6816 344.243 31.3034L346.114 30.5966C345.593 29.2184 345.329 27.7224 345.329 26.1H343.329ZM344.253 31.3286C344.914 32.9456 345.901 34.2761 347.218 35.2918L348.439 33.7082C347.423 32.9239 346.643 31.8877 346.104 30.5714L344.253 31.3286ZM347.229 35.3C348.628 36.3494 350.314 36.85 352.229 36.85V34.85C350.677 34.85 349.429 34.4506 348.429 33.7L347.229 35.3ZM377.432 13.65V12.65H376.432V13.65H377.432ZM381.732 13.65H382.732V12.65H381.732V13.65ZM381.732 40V41H382.732V40H381.732ZM377.432 40H376.432V41H377.432V40ZM377.532 7.95L376.804 8.63536L376.814 8.64639L376.825 8.6571L377.532 7.95ZM377.532 4L378.239 4.70711L378.25 4.69639L378.26 4.68536L377.532 4ZM381.532 4L380.804 4.68536L380.825 4.70743L380.847 4.7282L381.532 4ZM381.532 7.95L380.825 7.24289L380.825 7.24289L381.532 7.95ZM377.432 14.65H381.732V12.65H377.432V14.65ZM380.732 13.65V40H382.732V13.65H380.732ZM381.732 39H377.432V41H381.732V39ZM378.432 40V13.65H376.432V40H378.432ZM379.532 7.75C378.979 7.75 378.573 7.57643 378.239 7.24289L376.825 8.6571C377.558 9.39023 378.485 9.75 379.532 9.75V7.75ZM378.26 7.26463C377.899 6.88037 377.732 6.45771 377.732 5.95H375.732C375.732 6.97562 376.099 7.88629 376.804 8.63536L378.26 7.26463ZM377.732 5.95C377.732 5.44365 377.897 5.04946 378.239 4.70711L376.825 3.29289C376.101 4.0172 375.732 4.92302 375.732 5.95H377.732ZM378.26 4.68536C378.599 4.32576 378.999 4.15 379.532 4.15V2.15C378.465 2.15 377.532 2.5409 376.804 3.31463L378.26 4.68536ZM379.532 4.15C380.065 4.15 380.465 4.32576 380.804 4.68536L382.26 3.31463C381.532 2.5409 380.599 2.15 379.532 2.15V4.15ZM380.847 4.7282C381.216 5.07577 381.382 5.46372 381.382 5.95H383.382C383.382 4.90294 382.981 3.99089 382.217 3.2718L380.847 4.7282ZM381.382 5.95C381.382 6.43836 381.214 6.8543 380.825 7.24289L382.239 8.6571C382.984 7.91236 383.382 6.99497 383.382 5.95H381.382ZM380.825 7.24289C380.491 7.57643 380.085 7.75 379.532 7.75V9.75C380.579 9.75 381.506 9.39023 382.239 8.6571L380.825 7.24289ZM398.032 39.1L397.548 39.975L397.555 39.979L397.562 39.9829L398.032 39.1ZM394.432 35.8L393.575 36.3145L393.579 36.3223L393.584 36.33L394.432 35.8ZM393.232 31.35V30.35H392.232V31.35H393.232ZM397.532 31.35H398.532V30.35H397.532V31.35ZM398.232 34.05L397.36 34.5386L397.364 34.5463L397.368 34.5539L398.232 34.05ZM400.332 36.05L399.836 36.9182L399.848 36.925L399.86 36.9315L400.332 36.05ZM407.682 35.65L408.278 36.4531L408.282 36.45L407.682 35.65ZM408.032 29.7L407.392 30.4682L407.4 30.4746L407.407 30.4809L408.032 29.7ZM404.982 28.4L405.142 27.4129L405.134 27.4115L405.125 27.4103L404.982 28.4ZM401.532 27.9L401.38 28.8884L401.389 28.8897L401.532 27.9ZM396.082 25.7L395.459 26.4827L395.471 26.4913L396.082 25.7ZM396.482 15L397.092 15.7926L397.094 15.791L396.482 15ZM408.432 14.1L407.96 14.9818L407.973 14.9883L407.985 14.9944L408.432 14.1ZM411.782 17.05L410.933 17.578L410.939 17.5884L411.782 17.05ZM412.932 21.2V22.2H413.932V21.2H412.932ZM408.632 21.2H407.632V22.2H408.632V21.2ZM408.082 19L407.172 19.4138L407.179 19.4307L407.188 19.4472L408.082 19ZM406.332 17.1L405.793 17.9423L405.793 17.9423L406.332 17.1ZM399.282 17.5L399.903 18.2835L399.912 18.277L399.92 18.2704L399.282 17.5ZM398.982 23.1L399.638 22.3454L399.638 22.3454L398.982 23.1ZM401.882 24.4L401.713 25.3857L401.724 25.3874L401.882 24.4ZM405.632 25L405.796 24.0136L405.79 24.0126L405.632 25ZM411.182 27.3L410.568 28.0894L410.579 28.0979L411.182 27.3ZM412.132 36.55L411.321 35.9645L411.316 35.972L411.311 35.9796L412.132 36.55ZM408.632 39.35L408.226 38.4362L408.226 38.4362L408.632 39.35ZM403.582 39.35C401.58 39.35 399.897 38.9595 398.502 38.2171L397.562 39.9829C399.3 40.9072 401.318 41.35 403.582 41.35V39.35ZM398.516 38.225C397.077 37.429 396.011 36.4403 395.28 35.27L393.584 36.33C394.519 37.8264 395.854 39.0377 397.548 39.975L398.516 38.225ZM395.29 35.2855C394.577 34.0978 394.232 32.8744 394.232 31.6H392.232C392.232 33.2589 392.687 34.8355 393.575 36.3145L395.29 35.2855ZM394.232 31.6V31.35H392.232V31.6H394.232ZM393.232 32.35H397.532V30.35H393.232V32.35ZM396.532 31.35V31.55H398.532V31.35H396.532ZM396.532 31.55C396.532 32.5781 396.822 33.5781 397.36 34.5386L399.105 33.5614C398.709 32.8553 398.532 32.1886 398.532 31.55H396.532ZM397.368 34.5539C397.937 35.5284 398.775 36.312 399.836 36.9182L400.828 35.1818C400.022 34.7214 399.461 34.1716 399.096 33.5461L397.368 34.5539ZM399.86 36.9315C400.971 37.5269 402.276 37.8 403.732 37.8V35.8C402.522 35.8 401.559 35.5731 400.804 35.1685L399.86 36.9315ZM403.732 37.8C405.494 37.8 407.034 37.376 408.278 36.4531L407.086 34.8469C406.263 35.4573 405.17 35.8 403.732 35.8V37.8ZM408.282 36.45C409.608 35.4557 410.282 34.0722 410.282 32.4H408.282C408.282 33.4612 407.89 34.2443 407.082 34.85L408.282 36.45ZM410.282 32.4C410.282 30.9846 409.744 29.7887 408.657 28.9191L407.407 30.4809C407.987 30.9446 408.282 31.5488 408.282 32.4H410.282ZM408.672 28.9318C407.709 28.1295 406.517 27.6358 405.142 27.4129L404.822 29.3871C405.914 29.5642 406.755 29.9372 407.392 30.4682L408.672 28.9318ZM405.125 27.4103L401.675 26.9103L401.389 28.8897L404.839 29.3897L405.125 27.4103ZM401.684 26.9116C399.654 26.5993 398.004 25.9211 396.693 24.9087L395.471 26.4913C397.094 27.7456 399.077 28.534 401.38 28.8884L401.684 26.9116ZM396.705 24.9174C395.519 23.9746 394.882 22.6046 394.882 20.65H392.882C392.882 23.0954 393.711 25.0921 395.46 26.4826L396.705 24.9174ZM394.882 20.65C394.882 18.4871 395.635 16.9135 397.092 15.7926L395.872 14.2074C393.863 15.7532 392.882 17.9463 392.882 20.65H394.882ZM397.094 15.791C398.649 14.5879 400.669 13.95 403.232 13.95V11.95C400.328 11.95 397.848 12.6787 395.87 14.209L397.094 15.791ZM403.232 13.95C405.141 13.95 406.704 14.3098 407.96 14.9818L408.904 13.2182C407.293 12.3568 405.389 11.95 403.232 11.95V13.95ZM407.985 14.9944C409.308 15.656 410.276 16.5211 410.933 17.5779L412.631 16.5221C411.755 15.1122 410.489 14.0106 408.879 13.2056L407.985 14.9944ZM410.939 17.5884C411.603 18.6265 411.932 19.7561 411.932 21H413.932C413.932 19.3772 413.495 17.8735 412.625 16.5116L410.939 17.5884ZM411.932 21V21.2H413.932V21H411.932ZM412.932 20.2H408.632V22.2H412.932V20.2ZM409.632 21.2V21.1H407.632V21.2H409.632ZM409.632 21.1C409.632 20.2465 409.397 19.3936 408.976 18.5528L407.188 19.4472C407.501 20.073 407.632 20.6202 407.632 21.1H409.632ZM408.992 18.5862C408.563 17.6409 407.83 16.8712 406.871 16.2577L405.793 17.9423C406.501 18.3954 406.935 18.8925 407.172 19.4138L408.992 18.5862ZM406.871 16.2577C405.834 15.5937 404.564 15.3 403.132 15.3V17.3C404.3 17.3 405.164 17.5396 405.793 17.9423L406.871 16.2577ZM403.132 15.3C401.365 15.3 399.835 15.7443 398.644 16.7296L399.92 18.2704C400.662 17.6557 401.699 17.3 403.132 17.3V15.3ZM398.661 16.7165C397.447 17.6787 396.832 18.9875 396.832 20.55H398.832C398.832 19.5791 399.183 18.8547 399.903 18.2835L398.661 16.7165ZM396.832 20.55C396.832 21.8671 397.337 22.9943 398.326 23.8546L399.638 22.3454C399.094 21.8723 398.832 21.2996 398.832 20.55H396.832ZM398.326 23.8546C399.252 24.6601 400.396 25.1599 401.713 25.3856L402.051 23.4144C401.035 23.2401 400.245 22.8732 399.638 22.3454L398.326 23.8546ZM401.724 25.3874L405.474 25.9874L405.79 24.0126L402.04 23.4126L401.724 25.3874ZM405.468 25.9864C407.532 26.3305 409.22 27.0411 410.568 28.0894L411.796 26.5106C410.144 25.2256 408.132 24.4028 405.796 24.0136L405.468 25.9864ZM410.579 28.0979C411.78 29.0055 412.432 30.3638 412.432 32.35H414.432C414.432 29.8695 413.584 27.8612 411.785 26.5021L410.579 28.0979ZM412.432 32.35C412.432 33.7577 412.055 34.9489 411.321 35.9645L412.943 37.1355C413.943 35.7511 414.432 34.1423 414.432 32.35H412.432ZM411.311 35.9796C410.594 37.0113 409.58 37.8344 408.226 38.4362L409.038 40.2638C410.684 39.5322 412.003 38.4887 412.953 37.1204L411.311 35.9796ZM408.226 38.4362C406.87 39.0387 405.328 39.35 403.582 39.35V41.35C405.569 41.35 407.394 40.9946 409.038 40.2638L408.226 38.4362ZM431.437 17.1V16.1H430.437V17.1H431.437ZM431.587 35.15L430.6 35.3144L430.606 35.3469L430.613 35.379L431.587 35.15ZM432.537 36.5L431.982 37.3321L431.994 37.3402L432.007 37.348L432.537 36.5ZM437.687 36.65H438.687V35.3692L437.444 35.6799L437.687 36.65ZM437.687 39.75L438.081 40.6691L438.687 40.4094V39.75H437.687ZM436.137 40.05L436.013 39.0577L436.007 39.0584L436.137 40.05ZM429.387 39.4L428.868 40.2548L428.885 40.2656L428.904 40.2756L429.387 39.4ZM427.537 37.15L426.573 37.4159L426.578 37.4361L426.585 37.456L427.537 37.15ZM427.137 17.1H428.137V16.1H427.137V17.1ZM422.237 17.1H421.237V18.1H422.237V17.1ZM422.237 13.65V12.65H421.237V13.65H422.237ZM427.137 13.65V14.65H428.137V13.65H427.137ZM427.137 5V4H426.137V5H427.137ZM431.437 5H432.437V4H431.437V5ZM431.437 13.65H430.437V14.65H431.437V13.65ZM437.687 13.65H438.687V12.65H437.687V13.65ZM437.687 17.1V18.1H438.687V17.1H437.687ZM430.437 17.1V32.4H432.437V17.1H430.437ZM430.437 32.4C430.437 33.6445 430.486 34.6293 430.6 35.3144L432.573 34.9856C432.487 34.4707 432.437 33.6222 432.437 32.4H430.437ZM430.613 35.379C430.807 36.2012 431.279 36.8631 431.982 37.3321L433.091 35.6679C432.795 35.4702 432.633 35.2321 432.56 34.921L430.613 35.379ZM432.007 37.348C432.785 37.8342 433.869 38 435.087 38V36C433.971 36 433.356 35.8325 433.067 35.652L432.007 37.348ZM435.087 38C435.983 38 436.932 37.8694 437.929 37.6201L437.444 35.6799C436.575 35.8972 435.79 36 435.087 36V38ZM436.687 36.65V39.75H438.687V36.65H436.687ZM437.293 38.8309C437.295 38.8298 437.27 38.8404 437.201 38.8588C437.136 38.8761 437.048 38.8962 436.934 38.9182C436.706 38.9624 436.401 39.0092 436.013 39.0577L436.261 41.0423C436.673 40.9908 437.026 40.9376 437.314 40.8818C437.585 40.8294 437.86 40.7636 438.081 40.6691L437.293 38.8309ZM436.007 39.0584C435.287 39.1524 434.53 39.2 433.737 39.2V41.2C434.61 41.2 435.453 41.1476 436.266 41.0416L436.007 39.0584ZM433.737 39.2C431.863 39.2 430.615 38.9358 429.87 38.5244L428.904 40.2756C430.091 40.9308 431.744 41.2 433.737 41.2V39.2ZM429.906 38.5452C429.153 38.0882 428.707 37.5218 428.489 36.844L426.585 37.456C426.967 38.6449 427.754 39.5785 428.868 40.2548L429.906 38.5452ZM428.501 36.8841C428.267 36.0383 428.137 34.8712 428.137 33.35H426.137C426.137 34.9622 426.273 36.3283 426.573 37.4159L428.501 36.8841ZM428.137 33.35V17.1H426.137V33.35H428.137ZM427.137 16.1H422.237V18.1H427.137V16.1ZM423.237 17.1V13.65H421.237V17.1H423.237ZM422.237 14.65H427.137V12.65H422.237V14.65ZM428.137 13.65V5H426.137V13.65H428.137ZM427.137 6H431.437V4H427.137V6ZM430.437 5V13.65H432.437V5H430.437ZM431.437 14.65H437.687V12.65H431.437V14.65ZM436.687 13.65V17.1H438.687V13.65H436.687ZM437.687 16.1H431.437V18.1H437.687V16.1ZM448.816 13.65V12.65H447.816V13.65H448.816ZM453.116 13.65H454.116V12.65H453.116V13.65ZM453.116 17.85H452.116V18.85H453.116V17.85ZM453.416 17.85V18.85H454.111L454.353 18.1982L453.416 17.85ZM455.716 14.9L456.304 15.7087L456.308 15.7056L455.716 14.9ZM461.216 13.75L460.999 14.7262L461.057 14.7391L461.116 14.745L461.216 13.75ZM462.316 14L463.315 14.0357L463.342 13.2879L462.632 13.0513L462.316 14ZM462.166 18.2L461.867 19.1545L463.118 19.5454L463.165 18.2357L462.166 18.2ZM460.766 17.85L460.587 18.8339L460.594 18.8352L460.601 18.8364L460.766 17.85ZM453.116 40V41H454.116V40H453.116ZM448.816 40H447.816V41H448.816V40ZM448.816 14.65H453.116V12.65H448.816V14.65ZM452.116 13.65V17.85H454.116V13.65H452.116ZM453.116 18.85H453.416V16.85H453.116V18.85ZM454.353 18.1982C454.711 17.2332 455.348 16.4042 456.304 15.7087L455.127 14.0913C453.884 14.9958 452.986 16.1335 452.478 17.5018L454.353 18.1982ZM456.308 15.7056C457.236 15.0231 458.433 14.65 459.966 14.65V12.65C458.098 12.65 456.462 13.1102 455.123 14.0943L456.308 15.7056ZM459.966 14.65C460.471 14.65 460.803 14.6828 460.999 14.7262L461.433 12.7738C461.028 12.6839 460.527 12.65 459.966 12.65V14.65ZM461.116 14.745C461.36 14.7694 461.653 14.8331 461.999 14.9487L462.632 13.0513C462.179 12.9003 461.738 12.7973 461.315 12.755L461.116 14.745ZM461.316 13.9643L461.166 18.1643L463.165 18.2357L463.315 14.0357L461.316 13.9643ZM462.464 17.2455C461.902 17.0699 461.389 16.94 460.93 16.8636L460.601 18.8364C460.943 18.8933 461.363 18.9968 461.867 19.1545L462.464 17.2455ZM460.945 16.8661C460.494 16.7843 459.944 16.75 459.316 16.75V18.75C459.887 18.75 460.304 18.7824 460.587 18.8339L460.945 16.8661ZM459.316 16.75C457.046 16.75 455.177 17.4307 453.901 18.9427C452.653 20.4222 452.116 22.5335 452.116 25.1H454.116C454.116 22.7665 454.611 21.2028 455.43 20.2323C456.221 19.2943 457.452 18.75 459.316 18.75V16.75ZM452.116 25.1V40H454.116V25.1H452.116ZM453.116 39H448.816V41H453.116V39ZM449.816 40V13.65H447.816V40H449.816ZM474.951 38.55L474.359 39.3559L474.366 39.3615L474.951 38.55ZM471.201 33.65L472.123 33.2633L471.201 33.65ZM471.201 19.65L470.282 19.2561L470.279 19.2633L471.201 19.65ZM475.051 14.75L475.624 15.5692L475.627 15.567L475.051 14.75ZM486.751 14.6L486.142 15.3933L486.142 15.3933L486.751 14.6ZM490.001 18.55L489.099 18.9815L489.371 19.55H490.001V18.55ZM490.351 18.55V19.55H491.351V18.55H490.351ZM490.351 13.65V12.65H489.351V13.65H490.351ZM494.701 13.65H495.701V12.65H494.701V13.65ZM494.701 40V41H495.701V40H494.701ZM490.351 40H489.351V41H490.351V40ZM490.351 34.6H491.351V33.6H490.351V34.6ZM490.001 34.6V33.6H489.389L489.11 34.1452L490.001 34.6ZM486.601 38.65L487.212 39.4413L487.212 39.4413L486.601 38.65ZM488.201 33.8L489.013 34.3839L489.017 34.3772L488.201 33.8ZM488.201 19.55L487.384 20.1273L487.389 20.1339L488.201 19.55ZM476.301 19.5L475.489 18.916L475.482 18.9256L476.301 19.5ZM476.301 33.8L475.478 34.3677L475.483 34.3759L475.489 34.3839L476.301 33.8ZM480.951 39.35C478.797 39.35 477.009 38.7996 475.535 37.7385L474.366 39.3615C476.226 40.7004 478.437 41.35 480.951 41.35V39.35ZM475.543 37.7441C474.071 36.6625 472.927 35.1811 472.123 33.2633L470.279 34.0367C471.208 36.2523 472.564 38.0375 474.359 39.3559L475.543 37.7441ZM472.123 33.2633C471.315 31.3371 470.901 29.1382 470.901 26.65H468.901C468.901 29.3618 469.353 31.8296 470.279 34.0367L472.123 33.2633ZM470.901 26.65C470.901 24.1618 471.315 21.9629 472.123 20.0367L470.279 19.2633C469.353 21.4704 468.901 23.9382 468.901 26.65H470.901ZM472.12 20.0439C472.956 18.0935 474.128 16.6163 475.624 15.5692L474.477 13.9308C472.64 15.217 471.246 17.0065 470.282 19.2561L472.12 20.0439ZM475.627 15.567C477.139 14.5003 478.948 13.95 481.101 13.95V11.95C478.587 11.95 476.363 12.5997 474.474 13.933L475.627 15.567ZM481.101 13.95C483.279 13.95 484.928 14.462 486.142 15.3933L487.36 13.8067C485.706 12.538 483.59 11.95 481.101 11.95V13.95ZM486.142 15.3933C487.458 16.4037 488.438 17.5991 489.099 18.9815L490.903 18.1185C490.097 16.4343 488.91 14.9963 487.36 13.8067L486.142 15.3933ZM490.001 19.55H490.351V17.55H490.001V19.55ZM491.351 18.55V13.65H489.351V18.55H491.351ZM490.351 14.65H494.701V12.65H490.351V14.65ZM493.701 13.65V40H495.701V13.65H493.701ZM494.701 39H490.351V41H494.701V39ZM491.351 40V34.6H489.351V40H491.351ZM490.351 33.6H490.001V35.6H490.351V33.6ZM489.11 34.1452C488.381 35.5735 487.346 36.8106 485.989 37.8587L487.212 39.4413C488.789 38.2227 490.021 36.7599 490.891 35.0548L489.11 34.1452ZM485.989 37.8587C484.736 38.8268 483.084 39.35 480.951 39.35V41.35C483.418 41.35 485.532 40.7398 487.212 39.4413L485.989 37.8587ZM482.301 37.65C485.153 37.65 487.438 36.5732 489.013 34.3839L487.389 33.2161C486.23 34.8268 484.582 35.65 482.301 35.65V37.65ZM489.017 34.3772C490.525 32.244 491.251 29.6485 491.251 26.65H489.251C489.251 29.3182 488.61 31.4893 487.384 33.2228L489.017 34.3772ZM491.251 26.65C491.251 23.6521 490.526 21.0694 489.013 18.9661L487.389 20.1339C488.609 21.8306 489.251 23.9812 489.251 26.65H491.251ZM489.017 18.9728C487.446 16.7492 485.16 15.65 482.301 15.65V17.65C484.575 17.65 486.223 18.4841 487.384 20.1272L489.017 18.9728ZM482.301 15.65C479.392 15.65 477.069 16.7192 475.489 18.9161L477.113 20.0839C478.266 18.4808 479.943 17.65 482.301 17.65V15.65ZM475.482 18.9256C474.007 21.028 473.301 23.6071 473.301 26.6H475.301C475.301 23.9262 475.928 21.772 477.119 20.0744L475.482 18.9256ZM473.301 26.6C473.301 29.6241 474.006 32.2337 475.478 34.3677L477.124 33.2323C475.929 31.4997 475.301 29.3092 475.301 26.6H473.301ZM475.489 34.3839C477.069 36.5808 479.392 37.65 482.301 37.65V35.65C479.943 35.65 478.266 34.8192 477.113 33.2161L475.489 34.3839ZM510.757 39.1L510.273 39.975L510.28 39.979L510.287 39.9829L510.757 39.1ZM507.157 35.8L506.299 36.3145L506.304 36.3223L506.309 36.33L507.157 35.8ZM505.957 31.35V30.35H504.957V31.35H505.957ZM510.257 31.35H511.257V30.35H510.257V31.35ZM510.957 34.05L510.084 34.5386L510.088 34.5463L510.093 34.5539L510.957 34.05ZM513.057 36.05L512.561 36.9182L512.572 36.925L512.584 36.9315L513.057 36.05ZM520.407 35.65L521.002 36.4531L521.007 36.45L520.407 35.65ZM520.757 29.7L520.116 30.4682L520.124 30.4746L520.132 30.4809L520.757 29.7ZM517.707 28.4L517.867 27.4129L517.858 27.4115L517.85 27.4103L517.707 28.4ZM514.257 27.9L514.105 28.8884L514.113 28.8897L514.257 27.9ZM508.807 25.7L508.184 26.4827L508.195 26.4913L508.807 25.7ZM509.207 15L509.816 15.7926L509.819 15.791L509.207 15ZM521.157 14.1L520.685 14.9818L520.697 14.9883L520.709 14.9944L521.157 14.1ZM524.507 17.05L523.657 17.578L523.664 17.5884L524.507 17.05ZM525.657 21.2V22.2H526.657V21.2H525.657ZM521.357 21.2H520.357V22.2H521.357V21.2ZM520.807 19L519.896 19.4138L519.904 19.4307L519.912 19.4472L520.807 19ZM519.057 17.1L518.518 17.9423L518.518 17.9423L519.057 17.1ZM512.007 17.5L512.628 18.2835L512.636 18.277L512.644 18.2704L512.007 17.5ZM511.707 23.1L512.363 22.3454L512.363 22.3454L511.707 23.1ZM514.607 24.4L514.438 25.3857L514.449 25.3874L514.607 24.4ZM518.357 25L518.521 24.0136L518.515 24.0126L518.357 25ZM523.907 27.3L523.293 28.0894L523.304 28.0979L523.907 27.3ZM524.857 36.55L524.046 35.9645L524.041 35.972L524.035 35.9796L524.857 36.55ZM521.357 39.35L520.951 38.4362L520.951 38.4362L521.357 39.35ZM516.307 39.35C514.304 39.35 512.622 38.9595 511.226 38.2171L510.287 39.9829C512.025 40.9072 514.042 41.35 516.307 41.35V39.35ZM511.241 38.225C509.802 37.429 508.736 36.4403 508.005 35.27L506.309 36.33C507.244 37.8264 508.578 39.0377 510.273 39.975L511.241 38.225ZM508.014 35.2855C507.302 34.0978 506.957 32.8744 506.957 31.6H504.957C504.957 33.2589 505.412 34.8355 506.299 36.3145L508.014 35.2855ZM506.957 31.6V31.35H504.957V31.6H506.957ZM505.957 32.35H510.257V30.35H505.957V32.35ZM509.257 31.35V31.55H511.257V31.35H509.257ZM509.257 31.55C509.257 32.5781 509.546 33.5781 510.084 34.5386L511.829 33.5614C511.434 32.8553 511.257 32.1886 511.257 31.55H509.257ZM510.093 34.5539C510.661 35.5284 511.5 36.312 512.561 36.9182L513.553 35.1818C512.747 34.7214 512.185 34.1716 511.82 33.5461L510.093 34.5539ZM512.584 36.9315C513.696 37.5269 515 37.8 516.457 37.8V35.8C515.246 35.8 514.284 35.5731 513.529 35.1685L512.584 36.9315ZM516.457 37.8C518.218 37.8 519.759 37.376 521.002 36.4531L519.811 34.8469C518.988 35.4573 517.895 35.8 516.457 35.8V37.8ZM521.007 36.45C522.332 35.4557 523.007 34.0722 523.007 32.4H521.007C521.007 33.4612 520.614 34.2443 519.807 34.85L521.007 36.45ZM523.007 32.4C523.007 30.9846 522.468 29.7887 521.381 28.9191L520.132 30.4809C520.712 30.9446 521.007 31.5488 521.007 32.4H523.007ZM521.397 28.9318C520.434 28.1295 519.241 27.6358 517.867 27.4129L517.547 29.3871C518.639 29.5642 519.479 29.9372 520.116 30.4682L521.397 28.9318ZM517.85 27.4103L514.4 26.9103L514.113 28.8897L517.563 29.3897L517.85 27.4103ZM514.409 26.9116C512.379 26.5993 510.728 25.9211 509.418 24.9087L508.195 26.4913C509.818 27.7456 511.801 28.534 514.105 28.8884L514.409 26.9116ZM509.429 24.9174C508.244 23.9746 507.607 22.6046 507.607 20.65H505.607C505.607 23.0954 506.436 25.0921 508.184 26.4826L509.429 24.9174ZM507.607 20.65C507.607 18.4871 508.359 16.9135 509.816 15.7926L508.597 14.2074C506.587 15.7532 505.607 17.9463 505.607 20.65H507.607ZM509.819 15.791C511.374 14.5879 513.394 13.95 515.957 13.95V11.95C513.053 11.95 510.573 12.6787 508.595 14.209L509.819 15.791ZM515.957 13.95C517.866 13.95 519.429 14.3098 520.685 14.9818L521.628 13.2182C520.018 12.3568 518.114 11.95 515.957 11.95V13.95ZM520.709 14.9944C522.033 15.656 523 16.5211 523.657 17.5779L525.356 16.5221C524.48 15.1122 523.214 14.0106 521.604 13.2056L520.709 14.9944ZM523.664 17.5884C524.327 18.6265 524.657 19.7561 524.657 21H526.657C526.657 19.3772 526.219 17.8735 525.349 16.5116L523.664 17.5884ZM524.657 21V21.2H526.657V21H524.657ZM525.657 20.2H521.357V22.2H525.657V20.2ZM522.357 21.2V21.1H520.357V21.2H522.357ZM522.357 21.1C522.357 20.2465 522.121 19.3936 521.701 18.5528L519.912 19.4472C520.225 20.073 520.357 20.6202 520.357 21.1H522.357ZM521.717 18.5862C521.287 17.6409 520.554 16.8712 519.596 16.2577L518.518 17.9423C519.226 18.3954 519.659 18.8925 519.896 19.4138L521.717 18.5862ZM519.596 16.2577C518.558 15.5937 517.289 15.3 515.857 15.3V17.3C517.024 17.3 517.888 17.5396 518.518 17.9423L519.596 16.2577ZM515.857 15.3C514.089 15.3 512.56 15.7443 511.369 16.7296L512.644 18.2704C513.387 17.6557 514.424 17.3 515.857 17.3V15.3ZM511.385 16.7165C510.172 17.6787 509.557 18.9875 509.557 20.55H511.557C511.557 19.5791 511.908 18.8547 512.628 18.2835L511.385 16.7165ZM509.557 20.55C509.557 21.8671 510.061 22.9943 511.05 23.8546L512.363 22.3454C511.819 21.8723 511.557 21.2996 511.557 20.55H509.557ZM511.05 23.8546C511.977 24.6601 513.121 25.1599 514.438 25.3856L514.776 23.4144C513.759 23.2401 512.97 22.8732 512.363 22.3454L511.05 23.8546ZM514.449 25.3874L518.199 25.9874L518.515 24.0126L514.765 23.4126L514.449 25.3874ZM518.192 25.9864C520.257 26.3305 521.945 27.0411 523.293 28.0894L524.521 26.5106C522.868 25.2256 520.856 24.4028 518.521 24.0136L518.192 25.9864ZM523.304 28.0979C524.505 29.0055 525.157 30.3638 525.157 32.35H527.157C527.157 29.8695 526.308 27.8612 524.509 26.5021L523.304 28.0979ZM525.157 32.35C525.157 33.7577 524.779 34.9489 524.046 35.9645L525.667 37.1355C526.667 35.7511 527.157 34.1423 527.157 32.35H525.157ZM524.035 35.9796C523.319 37.0113 522.304 37.8344 520.951 38.4362L521.763 40.2638C523.409 39.5322 524.728 38.4887 525.678 37.1204L524.035 35.9796ZM520.951 38.4362C519.595 39.0387 518.053 39.35 516.307 39.35V41.35C518.294 41.35 520.118 40.9946 521.763 40.2638L520.951 38.4362ZM537.461 13.65V12.65H536.461V13.65H537.461ZM541.761 13.65H542.761V12.65H541.761V13.65ZM541.761 40V41H542.761V40H541.761ZM537.461 40H536.461V41H537.461V40ZM537.561 7.95L536.833 8.63536L536.844 8.64639L536.854 8.6571L537.561 7.95ZM537.561 4L538.268 4.70711L538.279 4.69639L538.29 4.68536L537.561 4ZM541.561 4L540.833 4.68536L540.854 4.70743L540.876 4.7282L541.561 4ZM541.561 7.95L540.854 7.24289L540.854 7.24289L541.561 7.95ZM537.461 14.65H541.761V12.65H537.461V14.65ZM540.761 13.65V40H542.761V13.65H540.761ZM541.761 39H537.461V41H541.761V39ZM538.461 40V13.65H536.461V40H538.461ZM539.561 7.75C539.009 7.75 538.602 7.57643 538.268 7.24289L536.854 8.6571C537.587 9.39023 538.514 9.75 539.561 9.75V7.75ZM538.29 7.26463C537.928 6.88037 537.761 6.45771 537.761 5.95H535.761C535.761 6.97562 536.128 7.88629 536.833 8.63536L538.29 7.26463ZM537.761 5.95C537.761 5.44365 537.926 5.04946 538.268 4.70711L536.854 3.29289C536.13 4.0172 535.761 4.92302 535.761 5.95H537.761ZM538.29 4.68536C538.628 4.32576 539.028 4.15 539.561 4.15V2.15C538.494 2.15 537.561 2.5409 536.833 3.31463L538.29 4.68536ZM539.561 4.15C540.094 4.15 540.495 4.32576 540.833 4.68536L542.29 3.31463C541.561 2.5409 540.628 2.15 539.561 2.15V4.15ZM540.876 4.7282C541.245 5.07577 541.411 5.46372 541.411 5.95H543.411C543.411 4.90294 543.011 3.99089 542.247 3.2718L540.876 4.7282ZM541.411 5.95C541.411 6.43836 541.243 6.8543 540.854 7.24289L542.268 8.6571C543.013 7.91236 543.411 6.99497 543.411 5.95H541.411ZM540.854 7.24289C540.521 7.57643 540.114 7.75 539.561 7.75V9.75C540.609 9.75 541.535 9.39023 542.268 8.6571L540.854 7.24289ZM564.361 43.65L565.283 44.0381L565.287 44.0294L564.361 43.65ZM562.811 46.75L561.963 46.22L561.951 46.2404L561.939 46.2614L562.811 46.75ZM560.461 49.1L559.907 48.268L559.907 48.268L560.461 49.1ZM553.161 49.8H552.161V50.5808L552.919 50.7701L553.161 49.8ZM553.161 46.6L553.326 45.6136L552.161 45.4195V46.6H553.161ZM557.911 46.15L557.397 45.2925L557.381 45.3018L557.366 45.3116L557.911 46.15ZM559.461 44.55L558.604 44.0355L558.594 44.0516L558.585 44.0681L559.461 44.55ZM560.861 41.65L561.783 42.0381L561.788 42.0268L560.861 41.65ZM562.061 38.7L562.988 39.0768L563.138 38.7082L562.993 38.3373L562.061 38.7ZM552.311 13.65V12.65H550.849L551.379 14.0127L552.311 13.65ZM556.811 13.65L557.752 13.3096L557.513 12.65H556.811V13.65ZM564.161 33.95L563.221 34.2904L563.46 34.95H564.161V33.95ZM564.461 33.95V34.95H565.152L565.396 34.3047L564.461 33.95ZM572.161 13.65V12.65H571.471L571.226 13.2953L572.161 13.65ZM576.661 13.65L577.587 14.0294L578.152 12.65H576.661V13.65ZM562.711 10.1L561.834 9.61977L561.024 11.1H562.711V10.1ZM567.611 1.15V0.149999H567.019L566.734 0.669775L567.611 1.15ZM572.211 1.15L573.04 1.71003L574.094 0.149999H572.211V1.15ZM566.161 10.1V11.1H566.692L566.99 10.66L566.161 10.1ZM563.44 43.2619C562.919 44.4995 562.425 45.4806 561.963 46.22L563.659 47.28C564.197 46.4194 564.737 45.3338 565.283 44.0381L563.44 43.2619ZM561.939 46.2614C561.573 46.9141 560.923 47.5905 559.907 48.268L561.016 49.9321C562.2 49.1428 563.116 48.2526 563.684 47.2386L561.939 46.2614ZM559.907 48.268C559.018 48.8605 557.796 49.2 556.161 49.2V51.2C558.06 51.2 559.705 50.8061 561.016 49.9321L559.907 48.268ZM556.161 49.2C555.323 49.2 554.405 49.0801 553.404 48.8299L552.919 50.7701C554.051 51.0532 555.133 51.2 556.161 51.2V49.2ZM554.161 49.8V46.6H552.161V49.8H554.161ZM552.997 47.5864C553.834 47.7259 554.591 47.8 555.261 47.8V45.8C554.732 45.8 554.089 45.7408 553.326 45.6136L552.997 47.5864ZM555.261 47.8C556.483 47.8 557.576 47.5604 558.456 46.9884L557.366 45.3116C556.913 45.6063 556.239 45.8 555.261 45.8V47.8ZM558.426 47.0075C559.241 46.5186 559.884 45.8571 560.338 45.0319L558.585 44.0681C558.306 44.5763 557.915 44.9814 557.397 45.2925L558.426 47.0075ZM560.319 45.0645C560.755 44.3378 561.243 43.3207 561.783 42.0381L559.94 41.2619C559.413 42.5126 558.968 43.4289 558.604 44.0355L560.319 45.0645ZM561.788 42.0268L562.988 39.0768L561.135 38.3232L559.935 41.2732L561.788 42.0268ZM562.993 38.3373L553.243 13.2873L551.379 14.0127L561.129 39.0627L562.993 38.3373ZM552.311 14.65H556.811V12.65H552.311V14.65ZM555.871 13.9904L563.221 34.2904L565.102 33.6096L557.752 13.3096L555.871 13.9904ZM564.161 34.95H564.461V32.95H564.161V34.95ZM565.396 34.3047L573.096 14.0047L571.226 13.2953L563.526 33.5953L565.396 34.3047ZM572.161 14.65H576.661V12.65H572.161V14.65ZM575.736 13.2706L563.436 43.2706L565.287 44.0294L577.587 14.0294L575.736 13.2706ZM563.588 10.5802L568.488 1.63022L566.734 0.669775L561.834 9.61977L563.588 10.5802ZM567.611 2.15H572.211V0.149999H567.611V2.15ZM571.383 0.58997L565.333 9.53997L566.99 10.66L573.04 1.71003L571.383 0.58997ZM566.161 9.1H562.711V11.1H566.161V9.1ZM589.287 38.55L588.695 39.3559L588.702 39.3615L589.287 38.55ZM585.537 33.65L586.459 33.2633L585.537 33.65ZM585.537 19.65L584.618 19.2561L584.615 19.2633L585.537 19.65ZM589.387 14.75L589.96 15.5692L589.963 15.567L589.387 14.75ZM601.087 14.6L600.478 15.3933L600.478 15.3933L601.087 14.6ZM604.337 18.55L603.435 18.9815L603.706 19.55H604.337V18.55ZM604.687 18.55V19.55H605.687V18.55H604.687ZM604.687 13.65V12.65H603.687V13.65H604.687ZM609.037 13.65H610.037V12.65H609.037V13.65ZM609.037 40V41H610.037V40H609.037ZM604.687 40H603.687V41H604.687V40ZM604.687 34.6H605.687V33.6H604.687V34.6ZM604.337 34.6V33.6H603.725L603.446 34.1452L604.337 34.6ZM600.937 38.65L601.548 39.4413L601.548 39.4413L600.937 38.65ZM602.537 33.8L603.349 34.3839L603.353 34.3772L602.537 33.8ZM602.537 19.55L601.72 20.1273L601.725 20.1339L602.537 19.55ZM590.637 19.5L589.825 18.916L589.818 18.9256L590.637 19.5ZM590.637 33.8L589.814 34.3677L589.819 34.3759L589.825 34.3839L590.637 33.8ZM595.287 39.35C593.133 39.35 591.345 38.7996 589.871 37.7385L588.702 39.3615C590.562 40.7004 592.773 41.35 595.287 41.35V39.35ZM589.879 37.7441C588.407 36.6625 587.263 35.1811 586.459 33.2633L584.615 34.0367C585.544 36.2523 586.9 38.0375 588.695 39.3559L589.879 37.7441ZM586.459 33.2633C585.651 31.3371 585.237 29.1382 585.237 26.65H583.237C583.237 29.3618 583.689 31.8296 584.615 34.0367L586.459 33.2633ZM585.237 26.65C585.237 24.1618 585.651 21.9629 586.459 20.0367L584.615 19.2633C583.689 21.4704 583.237 23.9382 583.237 26.65H585.237ZM586.456 20.0439C587.292 18.0935 588.464 16.6163 589.96 15.5692L588.813 13.9308C586.976 15.217 585.582 17.0065 584.618 19.2561L586.456 20.0439ZM589.963 15.567C591.475 14.5003 593.284 13.95 595.437 13.95V11.95C592.923 11.95 590.699 12.5997 588.81 13.933L589.963 15.567ZM595.437 13.95C597.614 13.95 599.264 14.462 600.478 15.3933L601.696 13.8067C600.042 12.538 597.926 11.95 595.437 11.95V13.95ZM600.478 15.3933C601.794 16.4037 602.773 17.5991 603.435 18.9815L605.239 18.1185C604.433 16.4343 603.246 14.9963 601.696 13.8067L600.478 15.3933ZM604.337 19.55H604.687V17.55H604.337V19.55ZM605.687 18.55V13.65H603.687V18.55H605.687ZM604.687 14.65H609.037V12.65H604.687V14.65ZM608.037 13.65V40H610.037V13.65H608.037ZM609.037 39H604.687V41H609.037V39ZM605.687 40V34.6H603.687V40H605.687ZM604.687 33.6H604.337V35.6H604.687V33.6ZM603.446 34.1452C602.717 35.5735 601.682 36.8106 600.325 37.8587L601.548 39.4413C603.125 38.2227 604.357 36.7599 605.227 35.0548L603.446 34.1452ZM600.325 37.8587C599.072 38.8268 597.42 39.35 595.287 39.35V41.35C597.754 41.35 599.868 40.7398 601.548 39.4413L600.325 37.8587ZM596.637 37.65C599.489 37.65 601.774 36.5732 603.349 34.3839L601.725 33.2161C600.566 34.8268 598.918 35.65 596.637 35.65V37.65ZM603.353 34.3772C604.861 32.244 605.587 29.6485 605.587 26.65H603.587C603.587 29.3182 602.946 31.4893 601.72 33.2228L603.353 34.3772ZM605.587 26.65C605.587 23.6521 604.861 21.0694 603.349 18.9661L601.725 20.1339C602.945 21.8306 603.587 23.9812 603.587 26.65H605.587ZM603.353 18.9728C601.781 16.7492 599.496 15.65 596.637 15.65V17.65C598.911 17.65 600.559 18.4841 601.72 20.1272L603.353 18.9728ZM596.637 15.65C593.728 15.65 591.405 16.7192 589.825 18.9161L591.449 20.0839C592.602 18.4808 594.279 17.65 596.637 17.65V15.65ZM589.818 18.9256C588.343 21.028 587.637 23.6071 587.637 26.6H589.637C589.637 23.9262 590.264 21.772 591.455 20.0744L589.818 18.9256ZM587.637 26.6C587.637 29.6241 588.342 32.2337 589.814 34.3677L591.46 33.2323C590.265 31.4997 589.637 29.3092 589.637 26.6H587.637ZM589.825 34.3839C591.405 36.5808 593.728 37.65 596.637 37.65V35.65C594.279 35.65 592.602 34.8192 591.449 33.2161L589.825 34.3839ZM625.093 39.1L624.609 39.975L624.616 39.979L624.623 39.9829L625.093 39.1ZM621.493 35.8L620.635 36.3145L620.64 36.3223L620.645 36.33L621.493 35.8ZM620.293 31.35V30.35H619.293V31.35H620.293ZM624.593 31.35H625.593V30.35H624.593V31.35ZM625.293 34.05L624.42 34.5386L624.424 34.5463L624.429 34.5539L625.293 34.05ZM627.393 36.05L626.896 36.9182L626.908 36.925L626.92 36.9315L627.393 36.05ZM634.743 35.65L635.338 36.4531L635.343 36.45L634.743 35.65ZM635.093 29.7L634.452 30.4682L634.46 30.4746L634.468 30.4809L635.093 29.7ZM632.043 28.4L632.203 27.4129L632.194 27.4115L632.186 27.4103L632.043 28.4ZM628.593 27.9L628.441 28.8884L628.449 28.8897L628.593 27.9ZM623.143 25.7L622.52 26.4827L622.531 26.4913L623.143 25.7ZM623.543 15L624.152 15.7926L624.154 15.791L623.543 15ZM635.493 14.1L635.021 14.9818L635.033 14.9883L635.045 14.9944L635.493 14.1ZM638.843 17.05L637.993 17.578L638 17.5884L638.843 17.05ZM639.993 21.2V22.2H640.993V21.2H639.993ZM635.693 21.2H634.693V22.2H635.693V21.2ZM635.143 19L634.232 19.4138L634.24 19.4307L634.248 19.4472L635.143 19ZM633.393 17.1L632.854 17.9423L632.854 17.9423L633.393 17.1ZM626.343 17.5L626.964 18.2835L626.972 18.277L626.98 18.2704L626.343 17.5ZM626.043 23.1L626.699 22.3454L626.699 22.3454L626.043 23.1ZM628.943 24.4L628.774 25.3857L628.785 25.3874L628.943 24.4ZM632.693 25L632.857 24.0136L632.851 24.0126L632.693 25ZM638.243 27.3L637.629 28.0894L637.64 28.0979L638.243 27.3ZM639.193 36.55L638.382 35.9645L638.376 35.972L638.371 35.9796L639.193 36.55ZM635.693 39.35L635.286 38.4362L635.286 38.4362L635.693 39.35ZM630.643 39.35C628.64 39.35 626.958 38.9595 625.562 38.2171L624.623 39.9829C626.361 40.9072 628.378 41.35 630.643 41.35V39.35ZM625.577 38.225C624.138 37.429 623.072 36.4403 622.341 35.27L620.645 36.33C621.58 37.8264 622.914 39.0377 624.609 39.975L625.577 38.225ZM622.35 35.2855C621.637 34.0978 621.293 32.8744 621.293 31.6H619.293C619.293 33.2589 619.748 34.8355 620.635 36.3145L622.35 35.2855ZM621.293 31.6V31.35H619.293V31.6H621.293ZM620.293 32.35H624.593V30.35H620.293V32.35ZM623.593 31.35V31.55H625.593V31.35H623.593ZM623.593 31.55C623.593 32.5781 623.882 33.5781 624.42 34.5386L626.165 33.5614C625.77 32.8553 625.593 32.1886 625.593 31.55H623.593ZM624.429 34.5539C624.997 35.5284 625.835 36.312 626.896 36.9182L627.889 35.1818C627.083 34.7214 626.521 34.1716 626.156 33.5461L624.429 34.5539ZM626.92 36.9315C628.032 37.5269 629.336 37.8 630.793 37.8V35.8C629.582 35.8 628.62 35.5731 627.865 35.1685L626.92 36.9315ZM630.793 37.8C632.554 37.8 634.095 37.376 635.338 36.4531L634.147 34.8469C633.324 35.4573 632.231 35.8 630.793 35.8V37.8ZM635.343 36.45C636.668 35.4557 637.343 34.0722 637.343 32.4H635.343C635.343 33.4612 634.95 34.2443 634.143 34.85L635.343 36.45ZM637.343 32.4C637.343 30.9846 636.804 29.7887 635.717 28.9191L634.468 30.4809C635.048 30.9446 635.343 31.5488 635.343 32.4H637.343ZM635.733 28.9318C634.77 28.1295 633.577 27.6358 632.203 27.4129L631.883 29.3871C632.975 29.5642 633.815 29.9372 634.452 30.4682L635.733 28.9318ZM632.186 27.4103L628.736 26.9103L628.449 28.8897L631.899 29.3897L632.186 27.4103ZM628.745 26.9116C626.715 26.5993 625.064 25.9211 623.754 24.9087L622.531 26.4913C624.154 27.7456 626.137 28.534 628.441 28.8884L628.745 26.9116ZM623.765 24.9174C622.58 23.9746 621.943 22.6046 621.943 20.65H619.943C619.943 23.0954 620.772 25.0921 622.52 26.4826L623.765 24.9174ZM621.943 20.65C621.943 18.4871 622.695 16.9135 624.152 15.7926L622.933 14.2074C620.923 15.7532 619.943 17.9463 619.943 20.65H621.943ZM624.154 15.791C625.71 14.5879 627.73 13.95 630.293 13.95V11.95C627.389 11.95 624.909 12.6787 622.931 14.209L624.154 15.791ZM630.293 13.95C632.202 13.95 633.765 14.3098 635.021 14.9818L635.964 13.2182C634.354 12.3568 632.45 11.95 630.293 11.95V13.95ZM635.045 14.9944C636.369 15.656 637.336 16.5211 637.993 17.5779L639.692 16.5221C638.815 15.1122 637.55 14.0106 635.94 13.2056L635.045 14.9944ZM638 17.5884C638.663 18.6265 638.993 19.7561 638.993 21H640.993C640.993 19.3772 640.555 17.8735 639.685 16.5116L638 17.5884ZM638.993 21V21.2H640.993V21H638.993ZM639.993 20.2H635.693V22.2H639.993V20.2ZM636.693 21.2V21.1H634.693V21.2H636.693ZM636.693 21.1C636.693 20.2465 636.457 19.3936 636.037 18.5528L634.248 19.4472C634.561 20.073 634.693 20.6202 634.693 21.1H636.693ZM636.053 18.5862C635.623 17.6409 634.89 16.8712 633.932 16.2577L632.854 17.9423C633.562 18.3954 633.995 18.8925 634.232 19.4138L636.053 18.5862ZM633.932 16.2577C632.894 15.5937 631.625 15.3 630.193 15.3V17.3C631.36 17.3 632.224 17.5396 632.854 17.9423L633.932 16.2577ZM630.193 15.3C628.425 15.3 626.896 15.7443 625.705 16.7296L626.98 18.2704C627.723 17.6557 628.76 17.3 630.193 17.3V15.3ZM625.721 16.7165C624.508 17.6787 623.893 18.9875 623.893 20.55H625.893C625.893 19.5791 626.244 18.8547 626.964 18.2835L625.721 16.7165ZM623.893 20.55C623.893 21.8671 624.397 22.9943 625.386 23.8546L626.699 22.3454C626.155 21.8723 625.893 21.2996 625.893 20.55H623.893ZM625.386 23.8546C626.313 24.6601 627.457 25.1599 628.774 25.3856L629.112 23.4144C628.095 23.2401 627.306 22.8732 626.699 22.3454L625.386 23.8546ZM628.785 25.3874L632.535 25.9874L632.851 24.0126L629.101 23.4126L628.785 25.3874ZM632.528 25.9864C634.593 26.3305 636.281 27.0411 637.629 28.0894L638.857 26.5106C637.204 25.2256 635.192 24.4028 632.857 24.0136L632.528 25.9864ZM637.64 28.0979C638.841 29.0055 639.493 30.3638 639.493 32.35H641.493C641.493 29.8695 640.644 27.8612 638.845 26.5021L637.64 28.0979ZM639.493 32.35C639.493 33.7577 639.115 34.9489 638.382 35.9645L640.003 37.1355C641.003 35.7511 641.493 34.1423 641.493 32.35H639.493ZM638.371 35.9796C637.655 37.0113 636.64 37.8344 635.286 38.4362L636.099 40.2638C637.745 39.5322 639.064 38.4887 640.014 37.1204L638.371 35.9796ZM635.286 38.4362C633.931 39.0387 632.388 39.35 630.643 39.35V41.35C632.63 41.35 634.454 40.9946 636.099 40.2638L635.286 38.4362ZM660.221 43.65L661.142 44.0381L661.146 44.0294L660.221 43.65ZM658.671 46.75L657.823 46.22L657.81 46.2404L657.798 46.2614L658.671 46.75ZM656.321 49.1L655.766 48.268L655.766 48.268L656.321 49.1ZM649.021 49.8H648.021V50.5808L648.778 50.7701L649.021 49.8ZM649.021 46.6L649.185 45.6136L648.021 45.4195V46.6H649.021ZM653.771 46.15L653.256 45.2925L653.241 45.3018L653.226 45.3116L653.771 46.15ZM655.321 44.55L654.463 44.0355L654.454 44.0516L654.444 44.0681L655.321 44.55ZM656.721 41.65L657.642 42.0381L657.647 42.0268L656.721 41.65ZM657.921 38.7L658.847 39.0768L658.997 38.7082L658.853 38.3373L657.921 38.7ZM648.171 13.65V12.65H646.708L647.239 14.0127L648.171 13.65ZM652.671 13.65L653.611 13.3096L653.372 12.65H652.671V13.65ZM660.021 33.95L659.08 34.2904L659.319 34.95H660.021V33.95ZM660.321 33.95V34.95H661.011L661.256 34.3047L660.321 33.95ZM668.021 13.65V12.65H667.33L667.086 13.2953L668.021 13.65ZM672.521 13.65L673.446 14.0294L674.011 12.65H672.521V13.65ZM659.299 43.2619C658.778 44.4995 658.285 45.4806 657.823 46.22L659.519 47.28C660.057 46.4194 660.597 45.3338 661.142 44.0381L659.299 43.2619ZM657.798 46.2614C657.433 46.9141 656.782 47.5905 655.766 48.268L656.875 49.9321C658.059 49.1428 658.975 48.2526 659.543 47.2386L657.798 46.2614ZM655.766 48.268C654.877 48.8605 653.655 49.2 652.021 49.2V51.2C653.92 51.2 655.564 50.8061 656.875 49.9321L655.766 48.268ZM652.021 49.2C651.182 49.2 650.264 49.0801 649.263 48.8299L648.778 50.7701C649.911 51.0532 650.993 51.2 652.021 51.2V49.2ZM650.021 49.8V46.6H648.021V49.8H650.021ZM648.856 47.5864C649.693 47.7259 650.45 47.8 651.121 47.8V45.8C650.591 45.8 649.948 45.7408 649.185 45.6136L648.856 47.5864ZM651.121 47.8C652.343 47.8 653.436 47.5604 654.316 46.9884L653.226 45.3116C652.772 45.6063 652.099 45.8 651.121 45.8V47.8ZM654.285 47.0075C655.1 46.5186 655.743 45.8571 656.197 45.0319L654.444 44.0681C654.165 44.5763 653.775 44.9814 653.256 45.2925L654.285 47.0075ZM656.178 45.0645C656.614 44.3378 657.102 43.3207 657.642 42.0381L655.799 41.2619C655.272 42.5126 654.827 43.4289 654.463 44.0355L656.178 45.0645ZM657.647 42.0268L658.847 39.0768L656.994 38.3232L655.794 41.2732L657.647 42.0268ZM658.853 38.3373L649.103 13.2873L647.239 14.0127L656.989 39.0627L658.853 38.3373ZM648.171 14.65H652.671V12.65H648.171V14.65ZM651.73 13.9904L659.08 34.2904L660.961 33.6096L653.611 13.3096L651.73 13.9904ZM660.021 34.95H660.321V32.95H660.021V34.95ZM661.256 34.3047L668.956 14.0047L667.086 13.2953L659.386 33.5953L661.256 34.3047ZM668.021 14.65H672.521V12.65H668.021V14.65ZM671.595 13.2706L659.295 43.2706L661.146 44.0294L673.446 14.0294L671.595 13.2706Z" fill="black"/>
</svg>
